<svg xmlns="http://www.w3.org/2000/svg" width="105" height="68" viewBox="0 0 105 68">
  <g id="fußballfeld_" data-name="fußballfeld " transform="translate(0.17)">
    <rect id="Rechteck_1" data-name="Rechteck 1" width="105" height="68" transform="translate(-0.17)" fill="#0a5511" opacity="0.63"/>
    <g id="Rechteck_2" data-name="Rechteck 2" transform="translate(-0.17)" fill="none" stroke="#fff" stroke-width="0.3">
      <rect width="105" height="68" stroke="none"/>
      <rect x="0.15" y="0.15" width="104.7" height="67.7" fill="none"/>
    </g>
    <g id="strafraum">
      <g id="Pfad_4" data-name="Pfad 4" transform="translate(88.564 14.482)" fill="none">
        <path d="M-.234-.642h16.5v40.32H-.234Z" stroke="none"/>
        <path d="M 0.06607532501220703 -0.3424224853515625 L 0.06607532501220703 39.37757873535156 L 15.96607494354248 39.37757873535156 L 15.96607494354248 -0.3424224853515625 L 0.06607532501220703 -0.3424224853515625 M -0.2339248657226562 -0.6424217224121094 L 16.26607513427734 -0.6424217224121094 L 16.26607513427734 39.67757797241211 L -0.2339248657226562 39.67757797241211 L -0.2339248657226562 -0.6424217224121094 Z" stroke="none" fill="#fff"/>
      </g>
      <g id="Pfad_21" data-name="Pfad 21" transform="translate(99.564 25.482)" fill="none">
        <path d="M-.234-.642h5.5v18.32h-5.5Z" stroke="none"/>
        <path d="M 0.06607532501220703 -0.3424224853515625 L 0.06607532501220703 17.37757873535156 L 4.966075420379639 17.37757873535156 L 4.966075420379639 -0.3424224853515625 L 0.06607532501220703 -0.3424224853515625 M -0.233924388885498 -0.6424217224121094 L 5.266075134277344 -0.6424217224121094 L 5.266075134277344 17.67757797241211 L -0.233924388885498 17.67757797241211 L -0.233924388885498 -0.6424217224121094 Z" stroke="none" fill="#fff"/>
      </g>
      <circle id="Ellipse_3" data-name="Ellipse 3" cx="0.5" cy="0.5" r="0.5" transform="translate(92.745 33.5)" fill="#fff"/>
      <g id="Differenzmenge_5" data-name="Differenzmenge 5" transform="translate(83.689 20)" fill="none">
        <path d="M4.961,22.613h0a9.795,9.795,0,0,1,0-17.226V22.613Z" stroke="none"/>
        <path d="M 4.660799980163574 22.09370803833008 L 4.660799980163574 5.906232833862305 C 1.853506088256836 7.628688335418701 0.1298999786376953 10.6846981048584 0.1298999786376953 14.00040245056152 C 0.1298999786376953 17.31552886962891 1.853689432144165 20.37145805358887 4.660799980163574 22.09370803833008 M 4.960800170898438 22.61316299438477 L 4.959320068359375 22.61236190795898 C 1.795379996299744 20.89598274230957 -0.1701000183820724 17.59607315063477 -0.1701000183820724 14.00040245056152 C -0.1701000183820724 10.40342235565186 1.795949935913086 7.102872848510742 4.960800170898438 5.386762619018555 L 4.960800170898438 22.61316299438477 Z" stroke="none" fill="#fff"/>
      </g>
    </g>
    <g id="strafraum-2" data-name="strafraum" transform="translate(-0.17 13.84)">
      <g id="Pfad_4-2" data-name="Pfad 4" transform="translate(0.234 0.642)" fill="none">
        <path d="M16.266-.642H-.234v40.32h16.5Z" stroke="none"/>
        <path d="M 0.06607532501220703 -0.3424224853515625 L 0.06607532501220703 39.37757873535156 L 15.96607494354248 39.37757873535156 L 15.96607494354248 -0.3424224853515625 L 0.06607532501220703 -0.3424224853515625 M -0.2339248657226562 -0.6424217224121094 L 16.26607513427734 -0.6424217224121094 L 16.26607513427734 39.67757797241211 L -0.2339248657226562 39.67757797241211 L -0.2339248657226562 -0.6424217224121094 Z" stroke="none" fill="#fff"/>
      </g>
      <g id="Pfad_21-2" data-name="Pfad 21" transform="translate(0.234 11.642)" fill="none">
        <path d="M5.266-.642h-5.5v18.32h5.5Z" stroke="none"/>
        <path d="M 0.06607532501220703 -0.3424224853515625 L 0.06607532501220703 17.37757873535156 L 4.966075420379639 17.37757873535156 L 4.966075420379639 -0.3424224853515625 L 0.06607532501220703 -0.3424224853515625 M -0.233924388885498 -0.6424217224121094 L 5.266075134277344 -0.6424217224121094 L 5.266075134277344 17.67757797241211 L -0.233924388885498 17.67757797241211 L -0.233924388885498 -0.6424217224121094 Z" stroke="none" fill="#fff"/>
      </g>
      <circle id="Ellipse_3-2" data-name="Ellipse 3" cx="0.5" cy="0.5" r="0.5" transform="translate(11.085 19.66)" fill="#fff"/>
      <g id="Differenzmenge_4" data-name="Differenzmenge 4" transform="translate(0.02 20)" fill="none">
        <path d="M16.18,8.762v-17.2a9.795,9.795,0,0,1,0,17.2Z" stroke="none"/>
        <path d="M 16.48019981384277 8.241212844848633 C 19.27522850036621 6.516321182250977 20.99130058288574 3.465323686599731 20.99130058288574 0.1601995229721069 C 20.99130058288574 -3.145717144012451 19.27540588378906 -6.196831703186035 16.48019981384277 -7.921693801879883 L 16.48019981384277 8.241212844848633 M 16.18020057678223 8.76216983795166 L 16.18020057678223 -8.44265079498291 C 19.33341026306152 -6.723180294036865 21.29129981994629 -3.426430463790894 21.29129981994629 0.1601995229721069 C 21.29129981994629 3.746169567108154 19.33341026306152 7.04194974899292 16.18168067932129 8.761369705200195 L 16.18020057678223 8.76216983795166 Z" stroke="none" fill="#fff"/>
      </g>
    </g>
    <g id="Pfad_2" data-name="Pfad 2" transform="translate(-1.67 65.609)" fill="none">
      <path d="M2.5,2.391a1.067,1.067,0,0,0-1-1v.187a1.065,1.065,0,0,1,.553.308,1.576,1.576,0,0,1,.282.5Z" stroke="none"/>
      <path d="M 2.5 2.390625 L 2.334949970245361 2.390625 C 2.334949970245361 2.390625 2.257280111312866 2.128945112228394 2.053400039672852 1.885954976081848 C 1.849509954452515 1.642964959144592 1.5 1.577545046806335 1.5 1.577545046806335 L 1.5 1.390625 C 2.014750003814697 1.390625 2.5 1.89511501789093 2.5 2.390625 Z" stroke="none" fill="#fff"/>
    </g>
    <g id="Pfad_11" data-name="Pfad 11" transform="translate(-1.67 -1.391)" fill="none">
      <path d="M2.5,1.391a1.067,1.067,0,0,1-1,1V2.2A1.065,1.065,0,0,0,2.053,1.9a1.576,1.576,0,0,0,.282-.5Z" stroke="none"/>
      <path d="M 2.334949970245361 1.390624761581421 L 2.5 1.390624761581421 C 2.5 1.88613486289978 2.014750003814697 2.390625 1.5 2.390625 L 1.5 2.203704833984375 C 1.5 2.203704833984375 1.849509954452515 2.138284921646118 2.053400039672852 1.895294904708862 C 2.257279872894287 1.652304887771606 2.334949970245361 1.390624761581421 2.334949970245361 1.390624761581421 Z" stroke="none" fill="#fff"/>
    </g>
    <g id="Pfad_12" data-name="Pfad 12" transform="translate(102.33 -1.391)" fill="none">
      <path d="M1.5,1.391a1.067,1.067,0,0,0,1,1V2.2A1.065,1.065,0,0,1,1.947,1.9a1.576,1.576,0,0,1-.282-.5Z" stroke="none"/>
      <path d="M 1.5 1.390625 L 1.665050029754639 1.390625 C 1.665050029754639 1.390625 1.742719888687134 1.652304887771606 1.946599960327148 1.895295023918152 C 2.150490045547485 2.138285160064697 2.5 2.203704833984375 2.5 2.203704833984375 L 2.5 2.390625 C 1.985249996185303 2.390625 1.5 1.88613498210907 1.5 1.390625 Z" stroke="none" fill="#fff"/>
    </g>
    <g id="Pfad_13" data-name="Pfad 13" transform="translate(102.33 65.609)" fill="none">
      <path d="M1.5,2.391a1.067,1.067,0,0,1,1-1v.187a1.065,1.065,0,0,0-.553.308,1.576,1.576,0,0,0-.282.5Z" stroke="none"/>
      <path d="M 1.665050029754639 2.390625 L 1.5 2.390625 C 1.5 1.89511501789093 1.985249996185303 1.390625 2.5 1.390625 L 2.5 1.577545046806335 C 2.5 1.577545046806335 2.150490045547485 1.642964959144592 1.946599960327148 1.885954976081848 C 1.742720007896423 2.128945112228394 1.665050029754639 2.390625 1.665050029754639 2.390625 Z" stroke="none" fill="#fff"/>
    </g>
    <path id="Pfad_5" data-name="Pfad 5" d="M-.084-.208v67.5" transform="translate(52.415 0.5)" fill="none" stroke="#fff" stroke-width="0.3"/>
    <g id="Pfad_6" data-name="Pfad 6" transform="translate(42.538 24.208)" fill="none">
      <path d="M9.792,0A9.792,9.792,0,1,1,0,9.792,9.792,9.792,0,0,1,9.792,0Z" stroke="none"/>
      <path d="M 9.791521072387695 0.3000011444091797 C 4.557881355285645 0.3000011444091797 0.3000011444091797 4.557881355285645 0.3000011444091797 9.791521072387695 C 0.3000011444091797 15.02516174316406 4.557881355285645 19.28304100036621 9.791521072387695 19.28304100036621 C 15.02516174316406 19.28304100036621 19.28304100036621 15.02516174316406 19.28304100036621 9.791521072387695 C 19.28304100036621 4.557881355285645 15.02516174316406 0.3000011444091797 9.791521072387695 0.3000011444091797 M 9.791521072387695 1.9073486328125e-06 C 15.19923114776611 1.9073486328125e-06 19.58304023742676 4.383810997009277 19.58304023742676 9.791521072387695 C 19.58304023742676 15.19923114776611 15.19923114776611 19.58304023742676 9.791521072387695 19.58304023742676 C 4.383810997009277 19.58304023742676 1.9073486328125e-06 15.19923114776611 1.9073486328125e-06 9.791521072387695 C 1.9073486328125e-06 4.383810997009277 4.383810997009277 1.9073486328125e-06 9.791521072387695 1.9073486328125e-06 Z" stroke="none" fill="#fff"/>
    </g>
    <circle id="Ellipse_1" data-name="Ellipse 1" cx="0.5" cy="0.5" r="0.5" transform="translate(51.83 33.5)" fill="#fff"/>
  </g>
</svg>
