<svg xmlns="http://www.w3.org/2000/svg" width="63.212" height="60.184" viewBox="0 0 63.212 60.184">
  <g id="challenge_yellow" transform="translate(-0.29 -1.814)">
    <path id="Pfad_5" data-name="Pfad 5" d="M62.117,56.371a3,3,0,1,1-5.111,1.96,3.035,3.035,0,0,1,.871-1.96,3.007,3.007,0,0,1,4.24,0Z" fill="#e5d352" stroke="#ac9700" stroke-width="1"/>
    <path id="Pfad_6" data-name="Pfad 6" d="M57.047,52.721l-2.82-2.83L50.4,46.062l-2.83,2.83,2.41,2.409,2.83,2.83,4.2,4.2a3.035,3.035,0,0,1,.871-1.96,2.936,2.936,0,0,1,1.959-.87l-2.789-2.78Z" fill="#e5d352" stroke="#ac9700" stroke-width="1"/>
    <path id="Pfad_7" data-name="Pfad 7" d="M49.816,40.991a3,3,0,1,1,4.82.829L50.4,46.061l-2.83,2.83-4.24,4.239a3,3,0,1,1-.83-4.819V48.3l1.531-1.53,4.25-4.239,1.529-1.541h.01Z" fill="#e5d352" stroke="#ac9700" stroke-width="1"/>
    <path id="Pfad_8" data-name="Pfad 8" d="M36.246,30.491l12.022,12.03.009.01-4.25,4.24L32,34.741l2.131-2.13,2.119-2.12Z" fill="#e5d352" stroke="#ac9700" stroke-width="1"/>
    <path id="Pfad_9" data-name="Pfad 9" d="M27.756,30.5,5.416,8.151,4,2.5l5.66,1.41L32,26.251l-2.119,2.121Z" fill="#e5d352" stroke="#ac9700" stroke-width="1"/>
    <path id="Pfad_10" data-name="Pfad 10" d="M6.986,58.331a2.994,2.994,0,0,1-5.109,2.29,3.012,3.012,0,0,1,0-4.25,3.006,3.006,0,0,1,4.24,0,3.032,3.032,0,0,1,.869,1.96Z" fill="#e5d352" stroke="#ac9700" stroke-width="1"/>
    <path id="Pfad_11" data-name="Pfad 11" d="M13.607,46.062l-3.83,3.83-2.83,2.829L4.166,55.5a2.99,2.99,0,0,1,1.951.87,3.032,3.032,0,0,1,.869,1.96H7l4.2-4.189,2.83-2.83,2.41-2.421-2.83-2.829Z" fill="#e5d352" stroke="#ac9700" stroke-width="1"/>
    <path id="Pfad_12" data-name="Pfad 12" d="M13.607,46.062l-4.24-4.24a3,3,0,1,1,4.82-.83l1.539,1.53,4.24,4.249L21.5,48.3a3,3,0,1,1-.83,4.83l-4.238-4.24Z" fill="#e5d352" stroke="#ac9700" stroke-width="1"/>
    <path id="Pfad_13" data-name="Pfad 13" d="M27.756,30.5l2.121-2.129L32,26.251,54.348,3.911,60,2.5l-1.41,5.65-22.34,22.34-2.119,2.12L32,34.741,19.967,46.771l-4.24-4.25Z" fill="#e5d352" stroke="#ac9700" stroke-width="1"/>
  </g>
</svg>
