<?xml version="1.0" encoding="UTF-8" standalone="no"?><!DOCTYPE svg PUBLIC "-//W3C//DTD SVG 1.1//EN"
        "http://www.w3.org/Graphics/SVG/1.1/DTD/svg11.dtd">
<svg width="100%" height="100%" viewBox="0 0 64 64" version="1.1" xmlns="http://www.w3.org/2000/svg"
     xmlns:xlink="http://www.w3.org/1999/xlink" xml:space="preserve"
     style="fill-rule:evenodd;clip-rule:evenodd;stroke-linejoin:round;stroke-miterlimit:1.41421;"><g><path d="M50.99,4l-4.01,7l4.01,7l-19,0l0,-14l19,0Z" style="fill:#ed5565;fill-rule:nonzero;"/><path
        d="M32,30.01l12.01,12c-3.08,3.08 -7.33,4.98 -12.02,4.98c-4.691,0 -8.93,-1.891 -12.01,-4.96l12.02,-12.02Z"
        style="fill:#e6e9ed;fill-rule:nonzero;"/><path
        d="M63.01,61l-62.02,0l18.99,-18.97c3.08,3.069 7.318,4.96 12.01,4.96c4.689,0 8.939,-1.9 12.02,-4.98l19,18.99Z"
        style="fill:#a0d468;fill-rule:nonzero;"/></g>
    <g><g><path d="M0.988,62c-0.256,0 -0.512,-0.098 -0.707,-0.293c-0.391,-0.391 -0.391,-1.024 0,-1.414l31.023,-31c0.391,-0.391 1.023,-0.391 1.414,0c0.391,0.391 0.391,1.024 0,1.414l-31.023,31c-0.195,0.195 -0.451,0.293 -0.707,0.293Z" style="fill-rule:nonzero;"/><path
            d="M63.012,62c-0.256,0 -0.512,-0.098 -0.707,-0.293l-31.023,-31c-0.391,-0.39 -0.391,-1.023 0,-1.414c0.391,-0.391 1.023,-0.391 1.414,0l31.023,31c0.391,0.39 0.391,1.023 0,1.414c-0.196,0.195 -0.451,0.293 -0.707,0.293Z"
            style="fill-rule:nonzero;"/></g>
        <path d="M31.988,47.994c-4.806,0 -9.322,-1.869 -12.719,-5.264c-0.391,-0.39 -0.391,-1.023 0,-1.414c0.391,-0.391 1.023,-0.391 1.414,0c3.019,3.017 7.033,4.678 11.305,4.678c4.276,0 8.295,-1.665 11.316,-4.688c0.391,-0.391 1.023,-0.391 1.414,0c0.391,0.39 0.391,1.023 0,1.414c-3.398,3.401 -7.919,5.274 -12.73,5.274Z"
              style="fill-rule:nonzero;"/>
        <path d="M31.988,31c-0.553,0 -1,-0.447 -1,-1l0,-27c0,-0.553 0.447,-1 1,-1c0.553,0 1,0.447 1,1l0,27c0,0.553 -0.447,1 -1,1Z"
              style="fill-rule:nonzero;"/>
        <path d="M51.01,19c-0.005,0 -0.013,0 -0.02,0l-19.002,0c-0.553,0 -1,-0.447 -1,-1l0,-14c0,-0.553 0.447,-1 1,-1l19.002,0c0.356,0 0.687,0.189 0.865,0.498c0.178,0.309 0.18,0.688 0.003,0.998l-3.719,6.504l3.633,6.351c0.148,0.174 0.238,0.401 0.238,0.649c0,0.553 -0.447,1 -1,1Zm-18.022,-2l16.278,0l-3.148,-5.504c-0.176,-0.308 -0.176,-0.685 0,-0.992l3.149,-5.504l-16.279,0l0,12Z"
              style="fill-rule:nonzero;"/></g></svg>