<?xml version="1.0" encoding="UTF-8" standalone="no"?>
<!DOCTYPE svg PUBLIC "-//W3C//DTD SVG 1.1//EN" "http://www.w3.org/Graphics/SVG/1.1/DTD/svg11.dtd">
<svg width="100%" height="100%" viewBox="0 0 64 64" version="1.1" xmlns="http://www.w3.org/2000/svg" xmlns:xlink="http://www.w3.org/1999/xlink" xml:space="preserve" style="fill-rule:evenodd;clip-rule:evenodd;stroke-linejoin:round;stroke-miterlimit:1.41421;">
    <g>
        <path d="M53.8,45.588L51.391,53.008L43.59,53.008L41.181,45.588L47.49,41.008L53.8,45.588Z" style="fill:rgb(101,109,120);fill-rule:nonzero;"/>
        <path d="M24.5,33.988C25.601,33.988 26.5,34.888 26.5,35.988C26.5,37.098 25.601,37.988 24.5,37.988C23.4,37.988 22.5,37.098 22.5,35.988C22.5,34.889 23.4,33.988 24.5,33.988Z" style="fill:rgb(101,109,120);fill-rule:nonzero;"/>
        <path d="M60.19,40.038L53.91,39.118L51.11,33.458L51.11,33.438C54.93,34.377 58.17,36.788 60.2,40.028L60.19,40.038Z" style="fill:rgb(101,109,120);fill-rule:nonzero;"/>
        <path d="M47.5,58.818L53.26,61.848C51.481,62.587 49.54,62.997 47.5,62.997C45.46,62.997 43.521,62.587 41.74,61.848L47.5,58.818Z" style="fill:rgb(101,109,120);fill-rule:nonzero;"/>
        <path d="M62.45,46.828C62.48,47.208 62.5,47.608 62.5,47.998C62.5,51.688 61.17,55.068 58.95,57.679L57.85,51.298L62.44,46.828L62.45,46.828Z" style="fill:rgb(101,109,120);fill-rule:nonzero;"/>
        <path d="M34.79,40.038C36.82,36.788 40.07,34.378 43.891,33.438L43.891,33.458L41.09,39.118L34.8,40.038L34.79,40.038Z" style="fill:rgb(101,109,120);fill-rule:nonzero;"/>
        <path d="M44.33,33.338C45.29,33.128 46.29,33.008 47.31,32.998C47.37,32.998 47.44,32.998 47.499,32.998C48.739,32.998 49.949,33.148 51.109,33.438L51.109,33.458L53.909,39.118L60.189,40.038L60.199,40.028C61.459,42.028 62.259,44.338 62.449,46.828L62.439,46.828L57.849,51.298L58.949,57.679C57.419,59.489 55.479,60.929 53.259,61.849L47.499,58.819L41.739,61.849C40.119,61.179 38.649,60.229 37.369,59.059C36.899,58.628 36.459,58.168 36.049,57.679C35.709,57.279 35.39,56.859 35.079,56.418C34.529,55.599 34.039,54.708 33.649,53.778C32.909,51.998 32.499,50.048 32.499,47.998C32.499,45.078 33.339,42.349 34.789,40.038L34.799,40.038L41.089,39.118L43.89,33.458L43.89,33.438C44.04,33.398 44.181,33.368 44.33,33.338ZM51.391,53.008L53.8,45.588L47.49,41.008L41.18,45.588L43.589,53.008L51.391,53.008Z" style="fill:rgb(245,247,250);fill-rule:nonzero;"/>
        <path d="M32.55,46.828C32.52,47.208 32.5,47.608 32.5,47.998C32.5,51.688 33.83,55.068 36.05,57.679L37.15,51.298L32.56,46.828L32.55,46.828Z" style="fill:rgb(101,109,120);fill-rule:nonzero;"/>
        <path d="M24.5,15.988C20.86,15.988 17.44,16.968 14.5,18.678C11.47,20.428 8.94,22.957 7.19,25.988C5.48,28.928 4.5,32.348 4.5,35.988C4.5,39.628 5.47,43.048 7.181,45.988C8.931,49.028 11.46,51.558 14.5,53.298C17.44,55.019 20.86,55.988 24.5,55.988C27.8,55.988 30.91,55.188 33.65,53.778C34.04,54.708 34.53,55.598 35.08,56.418C31.91,58.059 28.32,58.988 24.5,58.988C11.8,58.988 1.5,48.688 1.5,35.988C1.5,23.288 11.79,12.998 24.49,12.988L24.5,12.988C36.19,12.988 45.84,21.708 47.311,32.998C46.29,33.008 45.29,33.128 44.331,33.338C43.981,30.689 43.111,28.208 41.821,25.988C40.071,22.958 37.541,20.428 34.501,18.668C31.561,16.969 28.141,15.988 24.5,15.988Z" style="fill:rgb(255,206,84);fill-rule:nonzero;"/>
        <path d="M1.5,35.988C1.5,48.688 11.8,58.988 24.5,58.988C28.32,58.988 31.91,58.058 35.08,56.418C35.391,56.858 35.71,57.278 36.05,57.679C36.46,58.168 36.901,58.628 37.37,59.059C33.69,61.548 29.27,62.998 24.5,62.998C11.8,62.998 1.5,52.698 1.5,39.998L1.5,35.988Z" style="fill:rgb(246,187,66);fill-rule:nonzero;"/>
        <path d="M24.5,37.988C25.601,37.988 26.5,37.098 26.5,35.988C26.5,34.888 25.601,33.988 24.5,33.988C23.4,33.988 22.5,34.888 22.5,35.988C22.5,37.099 23.4,37.988 24.5,37.988ZM14.5,18.679C17.44,16.969 20.86,15.989 24.5,15.989C28.141,15.989 31.561,16.969 34.5,18.669C37.54,20.43 40.07,22.959 41.82,25.989C43.11,28.209 43.98,30.689 44.33,33.339C44.181,33.369 44.04,33.4 43.891,33.44C40.071,34.379 36.821,36.79 34.79,40.04C33.34,42.351 32.5,45.08 32.5,48C32.5,50.05 32.91,52 33.65,53.78C30.91,55.19 27.799,55.99 24.5,55.99C20.86,55.99 17.44,55.02 14.5,53.3C11.46,51.561 8.931,49.03 7.181,45.99C5.47,43.05 4.5,39.63 4.5,35.99C4.5,32.35 5.48,28.93 7.19,25.99C8.94,22.958 11.47,20.429 14.5,18.679Z" style="fill:rgb(230,233,237);fill-rule:nonzero;"/>
    </g>
    <g>
        <path d="M24.5,59.993C11.267,59.993 0.5,49.226 0.5,35.993C0.5,22.76 11.267,11.993 24.5,11.993C36.523,11.993 46.756,20.972 48.3,32.877C48.371,33.425 47.986,33.927 47.438,33.997C46.886,34.068 46.388,33.683 46.318,33.135C44.901,22.222 35.521,13.993 24.5,13.993C12.369,13.993 2.5,23.862 2.5,35.993C2.5,48.124 12.369,57.993 24.5,57.993C28.07,57.993 31.476,57.165 34.621,55.532C35.112,55.279 35.716,55.469 35.97,55.959C36.224,56.449 36.033,57.053 35.543,57.308C32.158,59.064 28.34,59.993 24.5,59.993Z" style="fill-rule:nonzero;"/>
        <path d="M24.5,56.993C12.921,56.993 3.5,47.572 3.5,35.993C3.5,24.414 12.921,14.993 24.5,14.993C34.99,14.993 43.939,22.824 45.317,33.209C45.389,33.757 45.004,34.26 44.458,34.332C43.911,34.402 43.407,34.02 43.335,33.473C42.089,24.078 33.991,16.994 24.5,16.994C14.023,16.994 5.5,25.517 5.5,35.994C5.5,46.471 14.023,54.994 24.5,54.994C27.565,54.994 30.49,54.287 33.193,52.891C33.686,52.639 34.287,52.83 34.541,53.321C34.794,53.812 34.602,54.416 34.111,54.669C31.121,56.211 27.888,56.993 24.5,56.993Z" style="fill-rule:nonzero;"/>
        <path d="M24.5,38.993C22.846,38.993 21.5,37.647 21.5,35.993C21.5,34.339 22.846,32.993 24.5,32.993C26.154,32.993 27.5,34.339 27.5,35.993C27.5,37.647 26.154,38.993 24.5,38.993ZM24.5,34.993C23.948,34.993 23.5,35.441 23.5,35.993C23.5,36.545 23.948,36.993 24.5,36.993C25.052,36.993 25.5,36.545 25.5,35.993C25.5,35.441 25.052,34.993 24.5,34.993Z" style="fill-rule:nonzero;"/>
        <path d="M24.5,63.998C11.267,63.998 0.5,53.231 0.5,39.998C0.5,39.445 0.947,38.998 1.5,38.998C2.053,38.998 2.5,39.445 2.5,39.998C2.5,52.129 12.369,61.998 24.5,61.998C28.912,61.998 33.168,60.697 36.807,58.236C37.266,57.926 37.886,58.048 38.196,58.504C38.506,58.962 38.385,59.583 37.928,59.893C33.956,62.578 29.313,63.998 24.5,63.998Z" style="fill-rule:nonzero;"/>
        <path d="M1.5,40.998C0.947,40.998 0.5,40.551 0.5,39.998L0.5,35.993C0.5,35.44 0.947,34.993 1.5,34.993C2.053,34.993 2.5,35.44 2.5,35.993L2.5,39.998C2.5,40.551 2.053,40.998 1.5,40.998Z" style="fill-rule:nonzero;"/>
        <path d="M24.5,13.993C23.947,13.993 23.5,13.546 23.5,12.993L23.5,8.997C23.5,8.444 23.947,7.997 24.5,7.997C25.053,7.997 25.5,8.444 25.5,8.997L25.5,12.993C25.5,13.546 25.053,13.993 24.5,13.993Z" style="fill-rule:nonzero;"/>
        <path d="M26.5,9.997L22.5,9.997C21.947,9.997 21.5,9.55 21.5,8.997C21.5,8.444 21.947,7.997 22.5,7.997L26.5,7.997C27.053,7.997 27.5,8.444 27.5,8.997C27.5,9.55 27.053,9.997 26.5,9.997Z" style="fill-rule:nonzero;"/>
        <path d="M24.492,13.993C20.634,13.993 17.494,10.854 17.494,6.996C17.494,3.138 20.634,-0.002 24.492,-0.002C28.35,-0.002 31.49,3.138 31.49,6.996C31.49,10.854 28.351,13.993 24.492,13.993ZM24.492,1.998C21.736,1.998 19.494,4.24 19.494,6.996C19.494,9.752 21.736,11.993 24.492,11.993C27.248,11.993 29.49,9.752 29.49,6.996C29.49,4.24 27.248,1.998 24.492,1.998Z" style="fill-rule:nonzero;"/>
        <path d="M24.5,34.993C23.947,34.993 23.5,34.546 23.5,33.993L23.5,23C23.5,22.447 23.947,22 24.5,22C25.053,22 25.5,22.447 25.5,23L25.5,33.993C25.5,34.546 25.053,34.993 24.5,34.993Z" style="fill-rule:nonzero;"/>
        <path d="M24.5,41.998C23.947,41.998 23.5,41.551 23.5,40.998L23.5,37.993C23.5,37.44 23.947,36.993 24.5,36.993C25.053,36.993 25.5,37.44 25.5,37.993L25.5,40.998C25.5,41.551 25.053,41.998 24.5,41.998Z" style="fill-rule:nonzero;"/>
        <path d="M24.5,17.998C23.947,17.998 23.5,17.551 23.5,16.998L23.5,15.993C23.5,15.44 23.947,14.993 24.5,14.993C25.053,14.993 25.5,15.44 25.5,15.993L25.5,16.998C25.5,17.551 25.053,17.998 24.5,17.998Z" style="fill-rule:nonzero;"/>
        <path d="M24.5,56.993C23.947,56.993 23.5,56.546 23.5,55.993L23.5,54.998C23.5,54.445 23.947,53.998 24.5,53.998C25.053,53.998 25.5,54.445 25.5,54.998L25.5,55.993C25.5,56.546 25.053,56.993 24.5,56.993Z" style="fill-rule:nonzero;"/>
        <path d="M15.003,20.543C14.657,20.543 14.321,20.363 14.136,20.043L13.634,19.173C13.358,18.694 13.522,18.083 14,17.807C14.477,17.532 15.089,17.695 15.366,18.173L15.868,19.043C16.144,19.522 15.98,20.133 15.502,20.409C15.345,20.5 15.173,20.543 15.003,20.543Z" style="fill-rule:nonzero;"/>
        <path d="M8.048,27.496C7.878,27.496 7.706,27.453 7.548,27.361L6.679,26.858C6.201,26.582 6.037,25.97 6.315,25.492C6.59,25.014 7.201,24.848 7.681,25.128L8.55,25.631C9.028,25.907 9.192,26.519 8.914,26.997C8.729,27.317 8.394,27.496 8.048,27.496Z" style="fill-rule:nonzero;"/>
        <path d="M5.504,36.994L4.499,36.993C3.946,36.992 3.499,36.545 3.5,35.992C3.501,35.44 3.948,34.993 4.5,34.993L5.505,34.994C6.058,34.995 6.505,35.442 6.504,35.995C6.503,36.547 6.056,36.994 5.504,36.994Z" style="fill-rule:nonzero;"/>
        <path d="M7.181,46.993C6.835,46.993 6.498,46.813 6.314,46.492C6.038,46.013 6.203,45.402 6.681,45.127L7.55,44.626C8.029,44.35 8.64,44.515 8.915,44.993C9.191,45.472 9.026,46.083 8.548,46.358L7.679,46.859C7.521,46.95 7.35,46.993 7.181,46.993Z" style="fill-rule:nonzero;"/>
        <path d="M40.958,27.492C40.612,27.492 40.276,27.313 40.091,26.992C39.815,26.514 39.979,25.902 40.457,25.626L41.32,25.127C41.796,24.851 42.409,25.014 42.686,25.493C42.962,25.971 42.798,26.583 42.32,26.859L41.457,27.358C41.3,27.449 41.128,27.492 40.958,27.492Z" style="fill-rule:nonzero;"/>
        <path d="M14.499,54.313C14.329,54.313 14.157,54.27 13.999,54.178C13.521,53.902 13.357,53.29 13.635,52.812L14.137,51.944C14.411,51.465 15.023,51.301 15.503,51.58C15.981,51.856 16.145,52.468 15.867,52.946L15.365,53.814C15.181,54.135 14.845,54.313 14.499,54.313Z" style="fill-rule:nonzero;"/>
        <path d="M34.001,20.537C33.832,20.537 33.66,20.494 33.503,20.403C33.024,20.128 32.859,19.516 33.136,19.038L33.634,18.174C33.909,17.695 34.52,17.529 34.999,17.807C35.478,18.082 35.643,18.694 35.366,19.172L34.868,20.036C34.684,20.357 34.347,20.537 34.001,20.537Z" style="fill-rule:nonzero;"/>
        <g>
            <path d="M47.5,64.002C38.678,64.002 31.5,56.825 31.5,48.003C31.5,39.182 38.678,32.005 47.5,32.005C56.322,32.005 63.5,39.182 63.5,48.003C63.5,56.825 56.322,64.002 47.5,64.002ZM47.5,34.005C39.78,34.005 33.5,40.284 33.5,48.003C33.5,55.722 39.78,62.002 47.5,62.002C55.22,62.002 61.5,55.722 61.5,48.003C61.5,40.284 55.22,34.005 47.5,34.005Z" style="fill-rule:nonzero;"/>
            <path d="M60.194,41.04C60.146,41.04 60.097,41.037 60.048,41.029L53.761,40.113C53.436,40.066 53.155,39.862 53.009,39.567L50.21,33.903C49.965,33.408 50.168,32.808 50.663,32.563C51.16,32.317 51.759,32.522 52.003,33.016L54.569,38.209L60.337,39.05C60.883,39.129 61.262,39.637 61.182,40.184C61.11,40.682 60.683,41.04 60.194,41.04Z" style="fill-rule:nonzero;"/>
            <path d="M58.95,58.679C58.471,58.679 58.049,58.335 57.966,57.848L56.87,51.468C56.814,51.144 56.922,50.813 57.158,50.582L61.742,46.118C62.137,45.734 62.769,45.739 63.156,46.138C63.541,46.534 63.533,47.166 63.136,47.552L58.929,51.649L59.936,57.51C60.03,58.054 59.665,58.571 59.12,58.664C59.063,58.674 59.006,58.679 58.95,58.679Z" style="fill-rule:nonzero;"/>
            <path d="M41.741,62.852C41.382,62.852 41.034,62.658 40.854,62.317C40.597,61.829 40.786,61.223 41.275,60.966L47.035,57.941C47.326,57.789 47.674,57.788 47.965,57.942L53.723,60.967C54.212,61.224 54.401,61.828 54.143,62.317C53.887,62.806 53.285,62.996 52.793,62.737L47.5,59.957L42.205,62.738C42.057,62.814 41.897,62.852 41.741,62.852Z" style="fill-rule:nonzero;"/>
            <path d="M36.048,58.679C35.992,58.679 35.935,58.674 35.878,58.664C35.333,58.57 34.968,58.054 35.062,57.51L36.069,51.649L31.862,47.552C31.466,47.166 31.458,46.533 31.842,46.138C32.228,45.742 32.861,45.735 33.256,46.118L37.84,50.582C38.076,50.812 38.184,51.144 38.128,51.468L37.032,57.848C36.949,58.335 36.526,58.679 36.048,58.679Z" style="fill-rule:nonzero;"/>
            <path d="M34.804,41.04C34.315,41.04 33.888,40.682 33.816,40.185C33.736,39.638 34.115,39.13 34.661,39.051L40.431,38.21L42.997,33.017C43.241,32.523 43.84,32.319 44.337,32.564C44.832,32.809 45.035,33.409 44.79,33.904L41.991,39.568C41.845,39.863 41.564,40.067 41.239,40.114L34.95,41.03C34.9,41.037 34.852,41.04 34.804,41.04Z" style="fill-rule:nonzero;"/>
            <path d="M51.393,54.007L43.594,54.007C43.161,54.007 42.777,53.729 42.643,53.317L40.231,45.903C40.097,45.491 40.244,45.039 40.594,44.785L46.907,40.199C47.259,39.943 47.731,39.943 48.083,40.199L54.394,44.785C54.745,45.039 54.891,45.491 54.757,45.903L52.345,53.317C52.21,53.729 51.825,54.007 51.393,54.007ZM44.32,52.007L50.666,52.007L52.629,45.975L47.494,42.244L42.357,45.975L44.32,52.007Z" style="fill-rule:nonzero;"/>
        </g>
    </g>
</svg>
