<?xml version="1.0" encoding="UTF-8" standalone="no"?><!DOCTYPE svg PUBLIC "-//W3C//DTD SVG 1.1//EN" "http://www.w3.org/Graphics/SVG/1.1/DTD/svg11.dtd"><svg width="100%" height="100%" viewBox="0 0 38 38" version="1.1" xmlns="http://www.w3.org/2000/svg" xmlns:xlink="http://www.w3.org/1999/xlink" xml:space="preserve" style="fill-rule:evenodd;clip-rule:evenodd;stroke-linejoin:round;stroke-miterlimit:1.41421;"><rect id="ArtBoard1" x="0" y="0" width="37.104" height="37.428" style="fill:none;"/><g><path d="M13.345,6.136c0.221,0.62 0.341,1.29 0.341,1.99c0,3.319 -2.69,6.01 -6,6.01c-0.7,0 -1.37,-0.12 -2,-0.35c-0.98,-0.341 -1.851,-0.94 -2.521,-1.71c-0.92,-1.061 -1.479,-2.44 -1.479,-3.95c0,-3.311 2.689,-5.99 6,-6c1.51,0 2.89,0.56 3.939,1.479c0.771,0.681 1.371,1.541 1.72,2.531Z" style="fill:#ed5565;fill-rule:nonzero;"/><path d="M30.666,7.076c6.64,6.64 6.64,17.399 0,24.04c-6.64,6.64 -17.4,6.64 -24.04,0c-5.15,-5.15 -6.3,-12.78 -3.46,-19.04c0.67,0.77 1.54,1.369 2.521,1.71c-2.07,5.069 -1.051,11.1 3.06,15.21c5.47,5.46 14.34,5.46 19.8,0c5.47,-5.471 5.47,-14.34 0,-19.801c-4.109,-4.109 -10.14,-5.13 -15.2,-3.06c-0.35,-0.99 -0.949,-1.85 -1.72,-2.53c6.258,-2.839 13.888,-1.679 19.039,3.471Z" style="fill:#656d78;fill-rule:nonzero;"/><path d="M28.545,9.196c5.47,5.461 5.47,14.33 0,19.801c-5.46,5.46 -14.33,5.46 -19.8,0c-4.11,-4.11 -5.13,-10.141 -3.06,-15.21c0.63,0.229 1.3,0.35 2,0.35c3.31,0 6,-2.69 6,-6.01c0,-0.7 -0.12,-1.37 -0.341,-1.99c5.062,-2.071 11.092,-1.051 15.201,3.059Z" style="fill:#e6e9ed;fill-rule:nonzero;"/></g><g><path d="M18.649,37.096c-4.808,0 -9.328,-1.872 -12.728,-5.272c-5.271,-5.271 -6.746,-13.373 -3.671,-20.162c0.227,-0.502 0.817,-0.726 1.324,-0.498c0.503,0.229 0.726,0.82 0.498,1.324c-2.733,6.034 -1.423,13.236 3.263,17.922c3.022,3.022 7.04,4.687 11.313,4.687c4.273,0 8.291,-1.664 11.313,-4.687c3.022,-3.023 4.687,-7.04 4.687,-11.313c0,-4.273 -1.664,-8.291 -4.687,-11.313c-4.687,-4.685 -11.889,-5.999 -17.922,-3.263c-0.505,0.229 -1.096,0.005 -1.324,-0.498c-0.228,-0.503 -0.005,-1.096 0.498,-1.324c6.788,-3.076 14.89,-1.602 20.162,3.671c3.4,3.399 5.272,7.92 5.272,12.728c0,4.808 -1.872,9.328 -5.272,12.728c-3.398,3.398 -7.918,5.27 -12.726,5.27Z" style="fill-rule:nonzero;"/><path d="M18.649,34.096c-4.007,0 -7.773,-1.561 -10.606,-4.394c-4.285,-4.284 -5.572,-10.677 -3.28,-16.287c0.209,-0.512 0.798,-0.757 1.304,-0.548c0.512,0.209 0.757,0.793 0.548,1.304c-1.987,4.863 -0.871,10.404 2.842,14.117c2.455,2.455 5.72,3.808 9.192,3.808c3.474,0 6.737,-1.353 9.192,-3.808c2.455,-2.455 3.808,-5.72 3.808,-9.192c0,-3.472 -1.353,-6.737 -3.808,-9.192c-3.712,-3.712 -9.253,-4.827 -14.119,-2.842c-0.513,0.208 -1.095,-0.037 -1.304,-0.548c-0.209,-0.511 0.036,-1.095 0.548,-1.304c5.609,-2.29 12.004,-1.006 16.289,3.279c2.833,2.832 4.394,6.599 4.394,10.606c0,4.007 -1.561,7.774 -4.394,10.606c-2.832,2.834 -6.598,4.395 -10.606,4.395Z" style="fill-rule:nonzero;"/><path d="M7.687,15.134c-3.86,0 -7.001,-3.141 -7.001,-7.001c0,-3.857 3.141,-6.998 7,-7.001c3.86,0.003 7,3.144 7,7.001c0,3.86 -3.14,7.001 -6.999,7.001Zm-0.001,-12.002c-2.756,0.002 -5,2.246 -5,5.001c0,2.758 2.243,5.001 5.001,5.001c2.757,0 4.999,-2.243 4.999,-5.001c0,-2.755 -2.243,-4.999 -5,-5.001Z" style="fill-rule:nonzero;"/><path d="M7.687,11.638c-0.553,0 -1,-0.447 -1,-1l0,-5.002c0,-0.553 0.447,-1 1,-1c0.553,0 1,0.447 1,1l0,5.002c0,0.553 -0.447,1 -1,1Z" style="fill-rule:nonzero;"/><path d="M10.187,9.137l-5.001,0c-0.553,0 -1,-0.447 -1,-1c0,-0.553 0.447,-1 1,-1l5.001,0c0.553,0 1,0.447 1,1c0,0.553 -0.447,1 -1,1Z" style="fill-rule:nonzero;"/><path d="M18.647,20.096c-0.553,0 -1,-0.447 -1,-1l0,-7.991c0,-0.553 0.447,-1 1,-1c0.553,0 1,0.447 1,1l0,7.991c0,0.553 -0.447,1 -1,1Z" style="fill-rule:nonzero;"/><path d="M24.28,25.69c-0.256,0 -0.512,-0.098 -0.707,-0.293l-5.65,-5.65c-0.391,-0.391 -0.391,-1.023 0,-1.414c0.391,-0.391 1.023,-0.391 1.414,0l5.65,5.65c0.391,0.391 0.391,1.023 0,1.414c-0.195,0.195 -0.451,0.293 -0.707,0.293Z" style="fill-rule:nonzero;"/></g></svg>