<?xml version="1.0" encoding="UTF-8" standalone="no"?>
<!DOCTYPE svg PUBLIC "-//W3C//DTD SVG 1.1//EN" "http://www.w3.org/Graphics/SVG/1.1/DTD/svg11.dtd">
<svg width="100%" height="100%" viewBox="0 0 65 43" version="1.1" xmlns="http://www.w3.org/2000/svg" xmlns:xlink="http://www.w3.org/1999/xlink" xml:space="preserve" style="fill-rule:evenodd;clip-rule:evenodd;stroke-linejoin:round;stroke-miterlimit:1.41421;">
    <g id="ArtBoard1" transform="matrix(1,0,0,1,0.486076,-10.6937)">
        <rect x="-0.486" y="10.694" width="64.648" height="42.532" style="fill:none;"/>
        <g>
            <path d="M22,12.995L22,16.005C22,16.545 21.55,17.005 21,17.005L2,17.005C1.45,17.005 1,16.545 1,16.005L1,12.995C1,12.445 1.45,11.995 2,11.995L21,11.995C21.55,11.995 22,12.445 22,12.995Z" style="fill:rgb(101,109,120);fill-rule:nonzero;"/>
            <path d="M63,12.995L63,16.005L57,16.005L45,16.005L33,16.005L27,16.005L22,16.005L22,12.995L63,12.995Z" style="fill:rgb(84,92,102);fill-rule:nonzero;"/>
            <g>
                <g transform="matrix(0.7071,-0.7071,0.7071,0.7071,1.1351,46.7502)">
                    <rect x="52.757" y="17.762" width="8.485" height="8.485" style="fill:rgb(77,76,76);"/>
                </g>
                <g transform="matrix(0.7071,-0.7071,0.7071,0.7071,-7.3502,50.2649)">
                    <rect x="52.757" y="29.762" width="8.485" height="8.485" style="fill:rgb(77,76,76);"/>
                </g>
                <g transform="matrix(0.7071,-0.7071,0.7071,0.7071,-15.8354,53.7796)">
                    <rect x="52.757" y="41.762" width="8.485" height="8.485" style="fill:rgb(77,76,76);"/>
                </g>
                <g transform="matrix(0.7071,-0.7071,0.7071,0.7071,-2.3796,38.2649)">
                    <rect x="40.757" y="17.762" width="8.485" height="8.485" style="fill:rgb(77,76,76);"/>
                </g>
                <g transform="matrix(0.7071,-0.7071,0.7071,0.7071,-10.8649,41.7796)">
                    <rect x="40.757" y="29.762" width="8.485" height="8.485" style="fill:rgb(77,76,76);"/>
                </g>
                <g transform="matrix(0.7071,-0.7071,0.7071,0.7071,-19.3502,45.2943)">
                    <rect x="40.757" y="41.762" width="8.485" height="8.485" style="fill:rgb(77,76,76);"/>
                </g>
                <g transform="matrix(0.7071,-0.7071,0.7071,0.7071,-5.8943,29.7796)">
                    <rect x="28.757" y="17.762" width="8.485" height="8.485" style="fill:rgb(77,76,76);"/>
                </g>
                <g transform="matrix(0.7071,-0.7071,0.7071,0.7071,-14.3796,33.2943)">
                    <rect x="28.757" y="29.762" width="8.485" height="8.485" style="fill:rgb(77,76,76);"/>
                </g>
                <g transform="matrix(0.7071,-0.7071,0.7071,0.7071,-22.8649,36.809)">
                    <rect x="28.757" y="41.762" width="8.485" height="8.485" style="fill:rgb(77,76,76);"/>
                </g>
            </g>
            <g>
                <path d="M63,46.005L63,52.005L57,52.005L63,46.005Z" style="fill:rgb(181,181,181);fill-rule:nonzero;"/>
                <path d="M63,34.005L63,46.005L57,40.005L63,34.005Z" style="fill:rgb(181,181,181);fill-rule:nonzero;"/>
                <path d="M63,22.005L63,34.005L57,28.005L63,22.005Z" style="fill:rgb(181,181,181);fill-rule:nonzero;"/>
                <path d="M63,16.005L63,22.005L57,16.005L63,16.005Z" style="fill:rgb(181,181,181);fill-rule:nonzero;"/>
                <path d="M57,16.005L51,22.005L45,16.005L57,16.005Z" style="fill:rgb(181,181,181);fill-rule:nonzero;"/>
                <g transform="matrix(0.7071,-0.7071,0.7071,0.7071,-4.8649,44.2649)">
                    <rect x="46.757" y="23.762" width="8.485" height="8.485" style="fill:rgb(181,181,181);"/>
                </g>
                <g transform="matrix(0.7071,-0.7071,0.7071,0.7071,-13.3502,47.7796)">
                    <rect x="46.757" y="35.762" width="8.485" height="8.485" style="fill:rgb(181,181,181);"/>
                </g>
                <path d="M57,52.005L45,52.005L51,46.005L57,52.005Z" style="fill:rgb(181,181,181);fill-rule:nonzero;"/>
                <g transform="matrix(0.7071,-0.7071,0.7071,0.7071,-16.8649,39.2943)">
                    <rect x="34.757" y="35.762" width="8.485" height="8.485" style="fill:rgb(181,181,181);"/>
                </g>
                <path d="M45,52.005L33,52.005L39,46.005L45,52.005Z" style="fill:rgb(181,181,181);fill-rule:nonzero;"/>
                <g transform="matrix(0.7071,-0.7071,0.7071,0.7071,-8.3796,35.7796)">
                    <rect x="34.757" y="23.762" width="8.485" height="8.485" style="fill:rgb(181,181,181);"/>
                </g>
                <path d="M45,16.005L39,22.005L33,16.005L45,16.005Z" style="fill:rgb(181,181,181);fill-rule:nonzero;"/>
                <path d="M33,28.005L27,34.005L27,22.005L33,28.005Z" style="fill:rgb(181,181,181);fill-rule:nonzero;"/>
                <path d="M33,16.005L27,22.005L27,16.005L33,16.005Z" style="fill:rgb(181,181,181);fill-rule:nonzero;"/>
                <path d="M33,40.005L27,46.005L27,34.005L33,40.005Z" style="fill:rgb(181,181,181);fill-rule:nonzero;"/>
                <path d="M33,52.005L27,52.005L27,46.005L33,52.005Z" style="fill:rgb(181,181,181);fill-rule:nonzero;"/>
            </g>
        </g>
        <g>
            <path d="M21,17.998L2,17.998C0.897,17.998 0,17.101 0,15.998L0,12.997C0,11.894 0.897,10.997 2,10.997L21,10.997C22.103,10.997 23,11.894 23,12.997L23,15.998C23,17.101 22.103,17.998 21,17.998ZM21,15.998L21,16.998L21,15.998ZM2,12.997L2,15.998L20.997,15.998L21,12.997L2,12.997Z" style="fill-rule:nonzero;"/>
            <path d="M63,16.998L22,16.998C21.447,16.998 21,16.551 21,15.998L21,12.997C21,12.444 21.447,11.997 22,11.997L63,11.997C63.553,11.997 64,12.444 64,12.997L64,15.998C64,16.551 63.553,16.998 63,16.998ZM23,14.998L62,14.998L62,13.997L23,13.997L23,14.998Z" style="fill-rule:nonzero;"/>
            <path d="M63,53.003L26.998,53.003C26.445,53.003 25.998,52.556 25.998,52.003L25.998,15.998C25.998,15.445 26.445,14.998 26.998,14.998L63,14.998C63.553,14.998 64,15.445 64,15.998L64,52.003C64,52.556 63.553,53.003 63,53.003ZM27.998,51.003L62,51.003L62,16.998L27.998,16.998L27.998,51.003Z" style="fill-rule:nonzero;"/>
            <path d="M32.999,53.002C32.743,53.002 32.487,52.904 32.292,52.709L26.292,46.709C25.901,46.318 25.901,45.686 26.292,45.295L32.292,39.295C32.683,38.904 33.315,38.904 33.706,39.295L39.706,45.295C40.097,45.686 40.097,46.318 39.706,46.709L33.706,52.709C33.511,52.904 33.255,53.002 32.999,53.002ZM28.413,46.002L32.999,50.588L37.585,46.002L32.999,41.416L28.413,46.002Z" style="fill-rule:nonzero;"/>
            <path d="M44.998,53.002C44.742,53.002 44.486,52.904 44.291,52.709L38.291,46.709C37.9,46.318 37.9,45.686 38.291,45.295L44.291,39.295C44.682,38.904 45.314,38.904 45.705,39.295L51.705,45.295C52.096,45.686 52.096,46.318 51.705,46.709L45.705,52.709C45.51,52.904 45.254,53.002 44.998,53.002ZM40.412,46.002L44.998,50.588L49.584,46.002L44.998,41.416L40.412,46.002Z" style="fill-rule:nonzero;"/>
            <path d="M56.997,53.002C56.741,53.002 56.485,52.904 56.29,52.709L50.29,46.709C49.899,46.318 49.899,45.686 50.29,45.295L56.29,39.295C56.681,38.904 57.313,38.904 57.704,39.295L63.704,45.295C64.095,45.686 64.095,46.318 63.704,46.709L57.704,52.709C57.509,52.904 57.253,53.002 56.997,53.002ZM52.411,46.002L56.997,50.588L61.583,46.002L56.997,41.416L52.411,46.002Z" style="fill-rule:nonzero;"/>
            <path d="M32.999,41.002C32.743,41.002 32.487,40.904 32.292,40.709L26.292,34.709C25.901,34.318 25.901,33.686 26.292,33.295L32.292,27.295C32.683,26.904 33.315,26.904 33.706,27.295L39.706,33.295C40.097,33.686 40.097,34.318 39.706,34.709L33.706,40.709C33.511,40.904 33.255,41.002 32.999,41.002ZM28.413,34.002L32.999,38.588L37.585,34.002L32.999,29.416L28.413,34.002Z" style="fill-rule:nonzero;"/>
            <path d="M44.998,41.002C44.742,41.002 44.486,40.904 44.291,40.709L38.291,34.709C37.9,34.318 37.9,33.686 38.291,33.295L44.291,27.295C44.682,26.904 45.314,26.904 45.705,27.295L51.705,33.295C52.096,33.686 52.096,34.318 51.705,34.709L45.705,40.709C45.51,40.904 45.254,41.002 44.998,41.002ZM40.412,34.002L44.998,38.588L49.584,34.002L44.998,29.416L40.412,34.002Z" style="fill-rule:nonzero;"/>
            <path d="M56.997,41.002C56.741,41.002 56.485,40.904 56.29,40.709L50.29,34.709C49.899,34.318 49.899,33.686 50.29,33.295L56.29,27.295C56.681,26.904 57.313,26.904 57.704,27.295L63.704,33.295C64.095,33.686 64.095,34.318 63.704,34.709L57.704,40.709C57.509,40.904 57.253,41.002 56.997,41.002ZM52.411,34.002L56.997,38.588L61.583,34.002L56.997,29.416L52.411,34.002Z" style="fill-rule:nonzero;"/>
            <path d="M32.999,29.002C32.743,29.002 32.487,28.904 32.292,28.709L26.292,22.709C25.901,22.318 25.901,21.686 26.292,21.295L32.292,15.295C32.683,14.904 33.315,14.904 33.706,15.295L39.706,21.295C40.097,21.686 40.097,22.318 39.706,22.709L33.706,28.709C33.511,28.904 33.255,29.002 32.999,29.002ZM28.413,22.002L32.999,26.588L37.585,22.002L32.999,17.416L28.413,22.002Z" style="fill-rule:nonzero;"/>
            <path d="M44.998,29.002C44.742,29.002 44.486,28.904 44.291,28.709L38.291,22.709C37.9,22.318 37.9,21.686 38.291,21.295L44.291,15.295C44.682,14.904 45.314,14.904 45.705,15.295L51.705,21.295C52.096,21.686 52.096,22.318 51.705,22.709L45.705,28.709C45.51,28.904 45.254,29.002 44.998,29.002ZM40.412,22.002L44.998,26.588L49.584,22.002L44.998,17.416L40.412,22.002Z" style="fill-rule:nonzero;"/>
            <path d="M56.997,29.002C56.741,29.002 56.485,28.904 56.29,28.709L50.29,22.709C49.899,22.318 49.899,21.686 50.29,21.295L56.29,15.295C56.681,14.904 57.313,14.904 57.704,15.295L63.704,21.295C64.095,21.686 64.095,22.318 63.704,22.709L57.704,28.709C57.509,28.904 57.253,29.002 56.997,29.002ZM52.411,22.002L56.997,26.588L61.583,22.002L56.997,17.416L52.411,22.002Z" style="fill-rule:nonzero;"/>
        </g>
    </g>
</svg>
