<?xml version="1.0" encoding="UTF-8" standalone="no"?><!DOCTYPE svg PUBLIC "-//W3C//DTD SVG 1.1//EN" "http://www.w3.org/Graphics/SVG/1.1/DTD/svg11.dtd"><svg width="100%" height="100%" viewBox="0 0 64 64" version="1.1" xmlns="http://www.w3.org/2000/svg" xmlns:xlink="http://www.w3.org/1999/xlink" xml:space="preserve" style="fill-rule:evenodd;clip-rule:evenodd;stroke-linejoin:round;stroke-miterlimit:1.41421;"><g><path d="M38.49,38.69l-1.061,6.17c-2.139,-2.53 -3.429,-5.79 -3.429,-9.36c0,-0.38 0.01,-0.76 0.05,-1.13l4.44,4.32Z" style="fill:#656d78;fill-rule:nonzero;"/><path d="M62.95,34.37c0.04,0.37 0.05,0.75 0.05,1.13c0,3.57 -1.29,6.83 -3.43,9.36l-1.061,-6.17l4.431,-4.32l0.01,0Z" style="fill:#656d78;fill-rule:nonzero;"/><path d="M60.77,27.8l-6.09,-0.89l-2.689,-5.47l0,-0.01c3.689,0.91 6.819,3.23 8.779,6.37Z" style="fill:#656d78;fill-rule:nonzero;"/><path d="M60.77,27.8c1.23,1.931 2,4.17 2.181,6.57l-0.01,0l-4.431,4.32l1.061,6.17c-1.48,1.75 -3.36,3.14 -5.511,4.029l-5.56,-2.92l-5.57,2.92c-2.15,-0.889 -4.03,-2.289 -5.5,-4.029l1.061,-6.17l-4.44,-4.32c0.181,-2.4 0.95,-4.64 2.17,-6.57c2.559,-4.09 7.099,-6.8 12.279,-6.8c1.2,0 2.37,0.15 3.49,0.43l0,0.011l2.689,5.47l6.091,0.889Zm-8.65,12.59l2.25,-6.899l-5.87,-4.26l-5.88,4.26l2.25,6.899l7.25,0Z" style="fill:#e6e9ed;fill-rule:nonzero;"/><path d="M54.37,33.49l-2.25,6.9l-7.25,0l-2.25,-6.9l5.88,-4.26l5.87,4.26Z" style="fill:#656d78;fill-rule:nonzero;"/><path d="M48.5,45.97l5.56,2.92c-1.71,0.72 -3.59,1.11 -5.56,1.11c-1.97,0 -3.86,-0.39 -5.57,-1.11l5.57,-2.92Z" style="fill:#656d78;fill-rule:nonzero;"/><path d="M36.23,27.8l6.09,-0.89l2.689,-5.47l0,-0.01c-3.689,0.91 -6.819,3.23 -8.779,6.37Z" style="fill:#656d78;fill-rule:nonzero;"/><path d="M28.99,44c1.56,0 2.83,-1.18 2.979,-2.69c-0.149,3.17 -2.769,5.69 -5.979,5.69l-24.99,0l0,-3l27.99,0Z" style="fill:#e6e9ed;fill-rule:nonzero;"/><path d="M12,25c0,1.66 -1.35,3 -3.01,3l0,-14l3.01,0l0,11Z" style="fill:#ccd1d9;fill-rule:nonzero;"/><path d="M8.99,34l0,-6l4.029,1.95l-0.029,0.05c0,2.21 -1.79,4 -4,4Z" style="fill:#656d78;fill-rule:nonzero;"/><path d="M8.99,28l0,6l-4.99,0c0,-1.11 -0.9,-2 -2,-2l-1,0l0,-18l7.99,0l0,14Z" style="fill:#e6e9ed;fill-rule:nonzero;"/><path d="M4,34l4.99,0c2.21,0 4,-1.79 4,-4l0.029,-0.05l4.82,2.33l2.62,1.26l2.63,1.27l7.23,3.5l0.01,0c0.979,0.49 1.66,1.511 1.66,2.69c0,0.1 -0.01,0.21 -0.021,0.31c-0.148,1.51 -1.418,2.69 -2.978,2.69l-27.99,0l0,-11.87l0,-0.13l1,0c1.1,0 2,0.89 2,2Z" style="fill:#5d9cec;fill-rule:nonzero;"/></g><g><path d="M62.998,50.998l-61.996,0c-0.553,0 -1,-0.447 -1,-1c0,-0.553 0.447,-1 1,-1l61.996,0c0.553,0 1,0.447 1,1c0,0.553 -0.447,1 -1,1Z" style="fill-rule:nonzero;"/><g><g><g><path d="M25.995,47.996c-0.553,0 -1,-0.447 -1,-1c0,-0.553 0.447,-1 1,-1c2.757,0 5,-2.243 5,-5c0,-0.553 0.447,-1 1,-1c0.553,0 1,0.447 1,1c0,3.859 -3.141,7 -7,7Z" style="fill-rule:nonzero;"/><path d="M28.995,44.996c-0.553,0 -1,-0.447 -1,-1c0,-0.553 0.447,-1 1,-1c1.103,0 2,-0.897 2,-2c0,-0.553 0.447,-1 1,-1c0.553,0 1,0.447 1,1c0,2.206 -1.794,4 -4,4Z" style="fill-rule:nonzero;"/><path d="M31.995,41.996c-0.553,0 -1,-0.447 -1,-1c0,-0.767 -0.426,-1.454 -1.11,-1.794c-0.495,-0.245 -0.697,-0.845 -0.451,-1.34c0.244,-0.494 0.846,-0.698 1.34,-0.451c1.37,0.68 2.222,2.054 2.222,3.585c-0.001,0.553 -0.448,1 -1.001,1Z" style="fill-rule:nonzero;"/><path d="M25.995,47.996l-24.993,0c-0.553,0 -1,-0.447 -1,-1c0,-0.553 0.447,-1 1,-1l24.993,0c0.553,0 1,0.447 1,1c0,0.553 -0.447,1 -1,1Z" style="fill-rule:nonzero;"/><path d="M28.995,44.996l-27.993,0c-0.553,0 -1,-0.447 -1,-1c0,-0.553 0.447,-1 1,-1l27.993,0c0.553,0 1,0.447 1,1c0,0.553 -0.447,1 -1,1Z" style="fill-rule:nonzero;"/><path d="M1.002,47.996c-0.553,0 -1,-0.447 -1,-1l0,-3c0,-0.553 0.447,-1 1,-1c0.553,0 1,0.447 1,1l0,3c0,0.553 -0.447,1 -1,1Z" style="fill-rule:nonzero;"/><path d="M1.002,44.996c-0.553,0 -1,-0.447 -1,-1l0,-11.998c0,-0.553 0.447,-1 1,-1c0.553,0 1,0.447 1,1l0,11.998c0,0.553 -0.447,1 -1,1Z" style="fill-rule:nonzero;"/><path d="M4,34.998c-0.553,0 -1,-0.447 -1,-1c0,-0.552 -0.448,-1 -1,-1c-0.553,0 -1,-0.447 -1,-1c0,-0.553 0.447,-1 1,-1c1.654,0 3,1.346 3,3c0,0.553 -0.447,1 -1,1Z" style="fill-rule:nonzero;"/><path d="M30.326,39.309c-0.146,0 -0.294,-0.032 -0.435,-0.1l-21.333,-10.313c-0.497,-0.24 -0.705,-0.838 -0.465,-1.336c0.241,-0.495 0.837,-0.703 1.336,-0.465l21.334,10.313c0.497,0.24 0.705,0.838 0.465,1.336c-0.173,0.357 -0.53,0.565 -0.902,0.565Z" style="fill-rule:nonzero;"/><path d="M8.995,34.996c-0.553,0 -1,-0.447 -1,-1c0,-0.553 0.447,-1 1,-1c1.653,0 2.998,-1.346 2.998,-3c0,-0.553 0.447,-1 1,-1c0.553,0 1,0.447 1,1c0,2.757 -2.242,5 -4.998,5Z" style="fill-rule:nonzero;"/><path d="M8.995,34.998l-4.995,0c-0.553,0 -1,-0.447 -1,-1c0,-0.553 0.447,-1 1,-1l4.995,0c0.553,0 1,0.447 1,1c0,0.553 -0.447,1 -1,1Z" style="fill-rule:nonzero;"/><path d="M8.993,34.996c-0.553,0 -1,-0.447 -1,-1l0,-6c0,-0.553 0.447,-1 1,-1c0.553,0 1,0.447 1,1l0,6c0,0.553 -0.447,1 -1,1Z" style="fill-rule:nonzero;"/></g><path d="M16.996,34.996c-0.147,0 -0.298,-0.032 -0.439,-0.103c-0.496,-0.243 -0.7,-0.842 -0.457,-1.338l0.845,-1.723c0.242,-0.495 0.843,-0.703 1.338,-0.457c0.496,0.243 0.7,0.842 0.457,1.338l-0.845,1.723c-0.173,0.355 -0.529,0.56 -0.899,0.56Z" style="fill-rule:nonzero;"/><path d="M19.666,36.176c-0.147,0 -0.298,-0.033 -0.439,-0.103c-0.496,-0.243 -0.7,-0.843 -0.457,-1.338l0.802,-1.633c0.242,-0.496 0.841,-0.7 1.338,-0.457c0.496,0.243 0.7,0.843 0.457,1.338l-0.802,1.633c-0.174,0.355 -0.53,0.56 -0.899,0.56Z" style="fill-rule:nonzero;"/><path d="M22.338,37.357c-0.147,0 -0.298,-0.033 -0.439,-0.103c-0.496,-0.243 -0.7,-0.843 -0.457,-1.338l0.759,-1.545c0.243,-0.496 0.841,-0.7 1.338,-0.457c0.496,0.243 0.7,0.843 0.457,1.338l-0.759,1.545c-0.174,0.355 -0.53,0.56 -0.899,0.56Z" style="fill-rule:nonzero;"/></g><path d="M1,33.127c-0.553,0 -1,-0.447 -1,-1l0,-18.127c0,-0.553 0.447,-1 1,-1c0.553,0 1,0.447 1,1l0,18.127c0,0.553 -0.447,1 -1,1Z" style="fill-rule:nonzero;"/><path d="M8.993,28.996c-0.553,0 -1,-0.447 -1,-1l0,-13.994c0,-0.553 0.447,-1 1,-1c0.553,0 1,0.447 1,1l0,13.994c0,0.553 -0.447,1 -1,1Z" style="fill-rule:nonzero;"/><path d="M2,32.998l-0.998,0c-0.553,0 -1,-0.447 -1,-1c0,-0.553 0.447,-1 1,-1l0.998,0c0.553,0 1,0.447 1,1c0,0.553 -0.447,1 -1,1Z" style="fill-rule:nonzero;"/><path d="M8.997,29.004c-0.553,0 -1,-0.447 -1,-1c0,-0.553 0.447,-1 1,-1c1.104,0 2.002,-0.898 2.002,-2.002c0,-0.553 0.447,-1 1,-1c0.553,0 1,0.447 1,1c0,2.207 -1.795,4.002 -4.002,4.002Z" style="fill-rule:nonzero;"/><path d="M11.999,26.002c-0.553,0 -1,-0.447 -1,-1l0,-11c0,-0.553 0.447,-1 1,-1c0.553,0 1,0.447 1,1l0,11c0,0.553 -0.447,1 -1,1Z" style="fill-rule:nonzero;"/><path d="M5.001,49c-0.553,0 -1,-0.447 -1,-1l0,-0.957c0,-0.553 0.447,-1 1,-1c0.553,0 1,0.447 1,1l0,0.957c0,0.553 -0.447,1 -1,1Z" style="fill-rule:nonzero;"/><path d="M8.001,49c-0.553,0 -1,-0.447 -1,-1l0,-0.957c0,-0.553 0.447,-1 1,-1c0.553,0 1,0.447 1,1l0,0.957c0,0.553 -0.447,1 -1,1Z" style="fill-rule:nonzero;"/><path d="M2.003,49c-0.553,0 -1,-0.447 -1,-1l0,-0.957c0,-0.553 0.447,-1 1,-1c0.553,0 1,0.447 1,1l0,0.957c0,0.553 -0.447,1 -1,1Z" style="fill-rule:nonzero;"/><path d="M23.019,49c-0.553,0 -1,-0.447 -1,-1l0,-0.957c0,-0.553 0.447,-1 1,-1c0.553,0 1,0.447 1,1l0,0.957c0,0.553 -0.448,1 -1,1Z" style="fill-rule:nonzero;"/><path d="M26.019,49c-0.553,0 -1,-0.447 -1,-1l0,-0.957c0,-0.553 0.447,-1 1,-1c0.553,0 1,0.447 1,1l0,0.957c0,0.553 -0.448,1 -1,1Z" style="fill-rule:nonzero;"/><path d="M20.021,49c-0.553,0 -1,-0.447 -1,-1l0,-0.957c0,-0.553 0.447,-1 1,-1c0.553,0 1,0.447 1,1l0,0.957c0,0.553 -0.448,1 -1,1Z" style="fill-rule:nonzero;"/></g><g><path d="M48.5,51c-8.547,0 -15.5,-6.953 -15.5,-15.5c0,-8.547 6.953,-15.5 15.5,-15.5c8.547,0 15.5,6.953 15.5,15.5c0,8.547 -6.953,15.5 -15.5,15.5Zm0,-29c-7.444,0 -13.5,6.056 -13.5,13.5c0,7.444 6.056,13.5 13.5,13.5c7.444,0 13.5,-6.056 13.5,-13.5c0,-7.444 -6.056,-13.5 -13.5,-13.5Z" style="fill-rule:nonzero;"/><path d="M60.775,28.803c-0.048,0 -0.097,-0.003 -0.146,-0.011l-6.086,-0.891c-0.325,-0.048 -0.606,-0.252 -0.752,-0.547l-2.699,-5.473c-0.245,-0.495 -0.041,-1.095 0.454,-1.339c0.496,-0.245 1.095,-0.042 1.339,0.454l2.467,5.002l5.566,0.814c0.547,0.08 0.925,0.588 0.845,1.134c-0.072,0.499 -0.499,0.857 -0.988,0.857Z" style="fill-rule:nonzero;"/><path d="M59.568,45.857c-0.479,0 -0.901,-0.344 -0.984,-0.831l-1.059,-6.172c-0.056,-0.324 0.052,-0.655 0.288,-0.886l4.431,-4.314c0.395,-0.384 1.027,-0.379 1.414,0.02c0.385,0.396 0.377,1.028 -0.02,1.414l-4.054,3.947l0.97,5.653c0.094,0.544 -0.271,1.062 -0.816,1.154c-0.056,0.011 -0.114,0.015 -0.17,0.015Z" style="fill-rule:nonzero;"/><path d="M54.064,49.885c-0.156,0 -0.315,-0.037 -0.464,-0.114l-5.1,-2.677l-5.101,2.677c-0.491,0.255 -1.094,0.068 -1.351,-0.421c-0.257,-0.489 -0.068,-1.094 0.421,-1.351l5.565,-2.92c0.291,-0.152 0.639,-0.152 0.93,0l5.565,2.92c0.489,0.257 0.678,0.861 0.421,1.351c-0.178,0.34 -0.525,0.535 -0.886,0.535Z" style="fill-rule:nonzero;"/><path d="M37.432,45.857c-0.056,0 -0.113,-0.005 -0.17,-0.015c-0.545,-0.093 -0.91,-0.61 -0.816,-1.154l0.97,-5.653l-4.056,-3.947c-0.396,-0.386 -0.404,-1.019 -0.02,-1.414c0.386,-0.396 1.019,-0.404 1.414,-0.02l4.433,4.314c0.236,0.229 0.344,0.562 0.288,0.886l-1.059,6.172c-0.083,0.488 -0.506,0.831 -0.984,0.831Z" style="fill-rule:nonzero;"/><path d="M36.223,28.803c-0.488,0 -0.916,-0.357 -0.988,-0.855c-0.08,-0.546 0.298,-1.054 0.845,-1.134l5.568,-0.814l2.467,-5.002c0.243,-0.495 0.842,-0.698 1.339,-0.454c0.495,0.244 0.699,0.844 0.454,1.339l-2.699,5.473c-0.146,0.295 -0.427,0.499 -0.752,0.547l-6.088,0.891c-0.05,0.006 -0.098,0.009 -0.146,0.009Z" style="fill-rule:nonzero;"/><path d="M52.127,41.387l-7.256,0c-0.433,0 -0.817,-0.278 -0.951,-0.69l-2.243,-6.895c-0.134,-0.412 0.013,-0.864 0.363,-1.118l5.872,-4.266c0.352,-0.256 0.824,-0.256 1.176,0l5.872,4.266c0.351,0.254 0.497,0.706 0.363,1.118l-2.245,6.895c-0.135,0.411 -0.518,0.69 -0.951,0.69Zm-6.529,-2l5.804,0l1.795,-5.513l-4.697,-3.411l-4.696,3.411l1.794,5.513Z" style="fill-rule:nonzero;"/></g></g></svg>