<?xml version="1.0" encoding="UTF-8" standalone="no"?><!DOCTYPE svg PUBLIC "-//W3C//DTD SVG 1.1//EN" "http://www.w3.org/Graphics/SVG/1.1/DTD/svg11.dtd"><svg width="100%" height="100%" viewBox="0 0 64 64" version="1.1" xmlns="http://www.w3.org/2000/svg" xmlns:xlink="http://www.w3.org/1999/xlink" xml:space="preserve" style="fill-rule:evenodd;clip-rule:evenodd;stroke-linejoin:round;stroke-miterlimit:1.41421;"><g><path d="M26.55,40.18c-2.21,-2.609 -3.54,-5.989 -3.54,-9.68c0,-2.92 0.841,-5.65 2.29,-7.96l0.011,0l6.29,-0.92l2.8,-5.66l0,-0.02c1.149,-0.29 2.359,-0.44 3.6,-0.44l0.01,0c1.24,0 2.45,0.15 3.61,0.44l-0.01,0.02l2.8,5.66l6.29,0.92l0.01,-0.01c1.261,2 2.061,4.31 2.25,6.8l-0.01,0l-4.59,4.47l1.1,6.38c-0.09,0.11 -0.189,0.21 -0.279,0.32c-0.37,0.42 -0.761,0.81 -1.181,1.18c-1.24,1.11 -2.67,2.021 -4.229,2.67l-5.762,-3.03l-5.76,3.029c-1.569,-0.649 -3.01,-1.56 -4.25,-2.68c-0.41,-0.36 -0.8,-0.75 -1.17,-1.17c-0.09,-0.109 -0.189,-0.209 -0.28,-0.319Zm15.35,-4.68l2.41,-7.41l-6.31,-4.59l-6.31,4.59l2.41,7.41l7.8,0Z" style="fill:#e6e9ed;fill-rule:nonzero;"/><path d="M63,13.5l0,45l-5,0l0,-8l0,-10l0,-10l0,-10l0,-7c0,-1.66 -1.34,-3 -3,-3l-7,0l-10,0l-10,0l-10,0l-10,0l-7,0l0,-5l54,0c4.42,0 8,3.58 8,8Z" style="fill:#e6e9ed;fill-rule:nonzero;"/><path d="M44.311,28.09l-2.411,7.41l-7.799,0l-2.411,-7.41l6.31,-4.59l6.311,4.59Z" style="fill:#656d78;fill-rule:nonzero;"/><path d="M26.83,20.5c0.37,-0.42 0.76,-0.81 1.17,-1.17c1.79,-1.61 3.98,-2.79 6.4,-3.39l0,0.02l-2.8,5.66l-6.29,0.92l-0.01,0c0.45,-0.72 0.96,-1.41 1.53,-2.04Z" style="fill:#656d78;fill-rule:nonzero;"/><path d="M48,19.32c0.42,0.37 0.82,0.77 1.181,1.189c0.569,0.63 1.079,1.3 1.529,2.021l-0.01,0.01l-6.29,-0.92l-2.8,-5.66l0.01,-0.02c2.41,0.59 4.59,1.77 6.38,3.38Z" style="fill:#656d78;fill-rule:nonzero;"/><path d="M48.36,33.8l4.59,-4.47l0.01,0c0.03,0.38 0.05,0.78 0.05,1.17c0,3.69 -1.329,7.07 -3.55,9.68l-1.1,-6.38Z" style="fill:#656d78;fill-rule:nonzero;"/><path d="M27.659,33.8l-4.59,-4.47l-0.01,0c-0.03,0.38 -0.05,0.78 -0.05,1.17c0,3.69 1.329,7.07 3.55,9.68l1.1,-6.38Z" style="fill:#656d78;fill-rule:nonzero;"/><path d="M38.01,41.32l5.761,3.029c-1.78,0.74 -3.721,1.15 -5.761,1.15l-0.01,0c-2.04,0 -3.979,-0.41 -5.75,-1.15l5.76,-3.029Z" style="fill:#656d78;fill-rule:nonzero;"/></g><g><path d="M63,14.501c-0.553,0 -1,-0.448 -1,-1c0,-3.86 -3.141,-7 -7,-7c-0.553,0 -1,-0.448 -1,-1c0,-0.552 0.447,-1 1,-1c4.963,0 9,4.038 9,9c0,0.552 -0.447,1 -1,1Z" style="fill-rule:nonzero;"/><path d="M58,14.501c-0.553,0 -1,-0.448 -1,-1c0,-1.103 -0.897,-2 -2,-2c-0.553,0 -1,-0.448 -1,-1c0,-0.552 0.447,-1 1,-1c2.206,0 4,1.794 4,4c0,0.552 -0.447,1 -1,1Z" style="fill-rule:nonzero;"/><path d="M63,59.499c-0.553,0 -1,-0.447 -1,-1l0,-44.998c0,-0.552 0.447,-1 1,-1c0.553,0 1,0.448 1,1l0,44.998c0,0.553 -0.447,1 -1,1Z" style="fill-rule:nonzero;"/><path d="M58,59.499c-0.553,0 -1,-0.447 -1,-1l0,-44.998c0,-0.552 0.447,-1 1,-1c0.553,0 1,0.448 1,1l0,44.998c0,0.553 -0.447,1 -1,1Z" style="fill-rule:nonzero;"/><path d="M55,11.501l-54,0c-0.553,0 -1,-0.448 -1,-1c0,-0.552 0.447,-1 1,-1l54,0c0.553,0 1,0.448 1,1c0,0.552 -0.447,1 -1,1Z" style="fill-rule:nonzero;"/><path d="M55,6.501l-54,0c-0.553,0 -1,-0.448 -1,-1c0,-0.552 0.447,-1 1,-1l54,0c0.553,0 1,0.448 1,1c0,0.552 -0.447,1 -1,1Z" style="fill-rule:nonzero;"/><path d="M48,59.499c-0.553,0 -1,-0.447 -1,-1l0,-16.816c0,-0.553 0.447,-1 1,-1c0.553,0 1,0.447 1,1l0,16.816c0,0.553 -0.447,1 -1,1Z" style="fill-rule:nonzero;"/><path d="M48,20.315c-0.553,0 -1,-0.448 -1,-1l0,-8.813c0,-0.552 0.447,-1 1,-1c0.553,0 1,0.448 1,1l0,8.813c0,0.553 -0.447,1 -1,1Z" style="fill-rule:nonzero;"/><path d="M38,59.499c-0.553,0 -1,-0.447 -1,-1l0,-13.001c0,-0.553 0.447,-1 1,-1c0.553,0 1,0.447 1,1l0,13.001c0,0.553 -0.447,1 -1,1Z" style="fill-rule:nonzero;"/><path d="M38,16.501c-0.553,0 -1,-0.448 -1,-1l0,-4.998c0,-0.552 0.447,-1 1,-1c0.553,0 1,0.448 1,1l0,4.998c0,0.552 -0.447,1 -1,1Z" style="fill-rule:nonzero;"/><path d="M28,59.499c-0.553,0 -1,-0.447 -1,-1l0,-16.826c0,-0.553 0.447,-1 1,-1c0.553,0 1,0.447 1,1l0,16.826c0,0.553 -0.447,1 -1,1Z" style="fill-rule:nonzero;"/><path d="M28,20.325c-0.553,0 -1,-0.448 -1,-1l0,-8.822c0,-0.552 0.447,-1 1,-1c0.553,0 1,0.448 1,1l0,8.822c0,0.552 -0.447,1 -1,1Z" style="fill-rule:nonzero;"/><path d="M18,59.499c-0.553,0 -1,-0.447 -1,-1l0,-47.996c0,-0.552 0.447,-1 1,-1c0.553,0 1,0.448 1,1l0,47.996c0,0.553 -0.447,1 -1,1Z" style="fill-rule:nonzero;"/><path d="M8,59.499c-0.553,0 -1,-0.447 -1,-1l0,-47.996c0,-0.552 0.447,-1 1,-1c0.553,0 1,0.448 1,1l0,47.996c0,0.553 -0.447,1 -1,1Z" style="fill-rule:nonzero;"/><path d="M26.824,21.501l-25.824,0c-0.553,0 -1,-0.448 -1,-1c0,-0.552 0.447,-1 1,-1l25.824,0c0.553,0 1,0.448 1,1c0,0.552 -0.447,1 -1,1Z" style="fill-rule:nonzero;"/><path d="M58,21.501l-8.814,0c-0.553,0 -1,-0.448 -1,-1c0,-0.552 0.447,-1 1,-1l8.814,0c0.553,0 1,0.448 1,1c0,0.552 -0.447,1 -1,1Z" style="fill-rule:nonzero;"/><path d="M23.006,31.502l-22.006,0c-0.553,0 -1,-0.448 -1,-1c0,-0.552 0.447,-1 1,-1l22.006,0c0.553,0 1,0.448 1,1c0,0.552 -0.447,1 -1,1Z" style="fill-rule:nonzero;"/><path d="M58,31.502l-4.994,0c-0.553,0 -1,-0.448 -1,-1c0,-0.552 0.447,-1 1,-1l4.994,0c0.553,0 1,0.448 1,1c0,0.552 -0.447,1 -1,1Z" style="fill-rule:nonzero;"/><path d="M26.828,41.501l-25.828,0c-0.553,0 -1,-0.447 -1,-1c0,-0.553 0.447,-1 1,-1l25.828,0c0.553,0 1,0.447 1,1c0,0.553 -0.447,1 -1,1Z" style="fill-rule:nonzero;"/><path d="M58,41.501l-8.818,0c-0.553,0 -1,-0.447 -1,-1c0,-0.553 0.447,-1 1,-1l8.818,0c0.553,0 1,0.447 1,1c0,0.553 -0.447,1 -1,1Z" style="fill-rule:nonzero;"/><path d="M58,51.501l-57,0c-0.553,0 -1,-0.447 -1,-1c0,-0.553 0.447,-1 1,-1l57,0c0.553,0 1,0.447 1,1c0,0.553 -0.447,1 -1,1Z" style="fill-rule:nonzero;"/><g><path d="M38.006,46.498c-8.822,0 -16,-7.177 -16,-15.999c0,-8.821 7.178,-15.998 16,-15.998c8.822,0 16,7.177 16,15.998c0,8.822 -7.178,15.999 -16,15.999Zm0,-29.997c-7.72,0 -14,6.279 -14,13.998c0,7.719 6.28,13.999 14,13.999c7.72,0 14,-6.28 14,-13.999c0,-7.719 -6.28,-13.998 -14,-13.998Z" style="fill-rule:nonzero;"/><path d="M50.7,23.536c-0.048,0 -0.097,-0.003 -0.146,-0.01l-6.287,-0.916c-0.325,-0.047 -0.606,-0.252 -0.752,-0.547l-2.799,-5.664c-0.245,-0.495 -0.042,-1.095 0.453,-1.339c0.498,-0.245 1.097,-0.042 1.34,0.454l2.566,5.193l5.768,0.84c0.546,0.08 0.925,0.587 0.845,1.134c-0.072,0.497 -0.5,0.855 -0.988,0.855Z" style="fill-rule:nonzero;"/><path d="M49.456,41.175c-0.479,0 -0.901,-0.344 -0.984,-0.831l-1.096,-6.38c-0.056,-0.324 0.052,-0.655 0.288,-0.886l4.584,-4.463c0.395,-0.387 1.027,-0.378 1.414,0.019c0.385,0.396 0.377,1.029 -0.02,1.414l-4.207,4.097l1.007,5.861c0.094,0.544 -0.271,1.061 -0.816,1.154c-0.057,0.01 -0.114,0.015 -0.17,0.015Z" style="fill-rule:nonzero;"/><path d="M32.247,45.348c-0.359,0 -0.707,-0.194 -0.887,-0.535c-0.257,-0.488 -0.068,-1.094 0.421,-1.351l5.76,-3.025c0.291,-0.152 0.639,-0.153 0.93,0.001l5.758,3.025c0.489,0.257 0.678,0.861 0.42,1.35c-0.256,0.489 -0.858,0.68 -1.35,0.42l-5.293,-2.78l-5.295,2.781c-0.148,0.077 -0.308,0.114 -0.464,0.114Z" style="fill-rule:nonzero;"/><path d="M26.554,41.175c-0.056,0 -0.113,-0.005 -0.17,-0.015c-0.545,-0.094 -0.91,-0.61 -0.816,-1.154l1.007,-5.861l-4.207,-4.097c-0.396,-0.385 -0.404,-1.018 -0.02,-1.414c0.386,-0.396 1.019,-0.405 1.414,-0.019l4.584,4.463c0.236,0.23 0.344,0.562 0.288,0.886l-1.096,6.38c-0.083,0.487 -0.506,0.831 -0.984,0.831Z" style="fill-rule:nonzero;"/><path d="M25.31,23.536c-0.489,0 -0.916,-0.358 -0.988,-0.856c-0.08,-0.546 0.299,-1.054 0.845,-1.134l5.77,-0.84l2.566,-5.193c0.243,-0.495 0.844,-0.697 1.34,-0.454c0.495,0.245 0.698,0.844 0.453,1.339l-2.799,5.664c-0.146,0.295 -0.427,0.5 -0.752,0.547l-6.289,0.916c-0.05,0.008 -0.099,0.011 -0.146,0.011Z" style="fill-rule:nonzero;"/><path d="M41.898,36.503l-7.798,0c-0.433,0 -0.817,-0.278 -0.951,-0.69l-2.412,-7.414c-0.134,-0.412 0.013,-0.864 0.363,-1.119l6.313,-4.586c0.352,-0.255 0.824,-0.255 1.176,0l6.311,4.586c0.351,0.255 0.497,0.707 0.363,1.119l-2.412,7.414c-0.135,0.412 -0.52,0.69 -0.953,0.69Zm-7.072,-2l6.346,0l1.963,-6.032l-5.135,-3.732l-5.137,3.731l1.963,6.033Z" style="fill-rule:nonzero;"/></g></g></svg>