<?xml version="1.0" encoding="UTF-8" standalone="no"?><!DOCTYPE svg PUBLIC "-//W3C//DTD SVG 1.1//EN" "http://www.w3.org/Graphics/SVG/1.1/DTD/svg11.dtd"><svg width="100%" height="100%" viewBox="0 0 64 64" version="1.1" xmlns="http://www.w3.org/2000/svg" xmlns:xlink="http://www.w3.org/1999/xlink" xml:space="preserve" style="fill-rule:evenodd;clip-rule:evenodd;stroke-linejoin:round;stroke-miterlimit:1.41421;"><g><path d="M27.06,30.75l4.891,4.76l-1.16,6.81l-0.01,0c-2.361,-2.78 -3.781,-6.39 -3.781,-10.32c0,-0.42 0.02,-0.84 0.05,-1.25l0.01,0Z" style="fill:#656d78;fill-rule:nonzero;"/><path d="M29.45,23.489c2.17,-3.449 5.63,-6.02 9.7,-7.02l0,0.01l-2.98,6.04l-6.71,0.98l-0.01,-0.01Z" style="fill:#656d78;fill-rule:nonzero;"/><path d="M56.54,23.5l-6.71,-0.98l-2.98,-6.04l0,-0.01c4.07,1 7.53,3.57 9.7,7.02l-0.01,0.01Z" style="fill:#656d78;fill-rule:nonzero;"/><path d="M54.05,35.51l4.891,-4.76l0.01,0c0.029,0.41 0.049,0.83 0.049,1.25c0,3.93 -1.42,7.54 -3.78,10.319l-0.01,0l-1.16,-6.809Z" style="fill:#656d78;fill-rule:nonzero;"/><path d="M58.95,30.75l-0.01,0l-4.891,4.76l1.16,6.81l0.01,0c-1.63,1.931 -3.71,3.471 -6.08,4.45l-6.139,-3.23l-6.14,3.229c-2.37,-0.979 -4.45,-2.52 -6.08,-4.45l0.01,0l1.16,-6.81l-4.891,-4.76l-0.01,0c0.2,-2.66 1.061,-5.13 2.4,-7.261l0.01,0.011l6.71,-0.98l2.98,-6.04l0,-0.01c1.231,-0.309 2.521,-0.469 3.851,-0.469c1.33,0 2.62,0.16 3.85,0.47l0,0.01l2.98,6.04l6.71,0.98l0.01,-0.011c1.34,2.131 2.2,4.601 2.4,7.261Zm-12.05,6.25l2.409,-7.42l-6.309,-4.58l-6.31,4.58l2.41,7.42l7.8,0Z" style="fill:#e6e9ed;fill-rule:nonzero;"/><path d="M49.31,29.58l-2.41,7.42l-7.8,0l-2.41,-7.42l6.31,-4.58l6.31,4.58Z" style="fill:#656d78;fill-rule:nonzero;"/><path d="M43,43.54l6.14,3.229c-1.89,0.8 -3.96,1.231 -6.14,1.231c-2.18,0 -4.25,-0.431 -6.14,-1.23l6.14,-3.23Z" style="fill:#656d78;fill-rule:nonzero;"/></g><g><g><path d="M43,53c-0.553,0 -1,-0.447 -1,-1c0,-0.553 0.447,-1 1,-1c10.477,0 19,-8.523 19,-19c0,-10.477 -8.523,-19 -19,-19c-0.553,0 -1,-0.447 -1,-1c0,-0.553 0.447,-1 1,-1c11.579,0 21,9.421 21,21c0,11.579 -9.421,21 -21,21Z" style="fill-rule:nonzero;"/><path d="M43,53l-35.994,0c-0.553,0 -1,-0.447 -1,-1c0,-0.553 0.447,-1 1,-1l35.994,0c0.553,0 1,0.447 1,1c0,0.553 -0.447,1 -1,1Z" style="fill-rule:nonzero;"/><path d="M43,13l-35,0c-0.553,0 -1,-0.447 -1,-1c0,-0.553 0.447,-1 1,-1l35,0c0.553,0 1,0.447 1,1c0,0.553 -0.447,1 -1,1Z" style="fill-rule:nonzero;"/><path d="M29.986,17.001l-28.986,0c-0.553,0 -1,-0.447 -1,-1c0,-0.553 0.447,-1 1,-1l28.986,0c0.553,0 1,0.447 1,1c0,0.553 -0.447,1 -1,1Z" style="fill-rule:nonzero;"/><path d="M23.98,21.002l-14.98,0c-0.553,0 -1,-0.447 -1,-1c0,-0.553 0.447,-1 1,-1l14.98,0c0.553,0 1,0.447 1,1c0,0.553 -0.447,1 -1,1Z" style="fill-rule:nonzero;"/><path d="M23.98,25.003l-19.984,0c-0.553,0 -1,-0.447 -1,-1c0,-0.553 0.447,-1 1,-1l19.984,0c0.553,0 1,0.447 1,1c0,0.553 -0.447,1 -1,1Z" style="fill-rule:nonzero;"/><path d="M16.975,29.004l-9.977,0c-0.553,0 -1,-0.447 -1,-1c0,-0.553 0.447,-1 1,-1l9.977,0c0.553,0 1,0.447 1,1c0,0.553 -0.448,1 -1,1Z" style="fill-rule:nonzero;"/><path d="M22.98,33.005l-20.986,0c-0.553,0 -1,-0.447 -1,-1c0,-0.553 0.447,-1 1,-1l20.986,0c0.553,0 1,0.447 1,1c0,0.553 -0.447,1 -1,1Z" style="fill-rule:nonzero;"/><path d="M18.977,37.006l-9.977,0c-0.553,0 -1,-0.447 -1,-1c0,-0.553 0.447,-1 1,-1l9.977,0c0.553,0 1,0.447 1,1c0,0.553 -0.448,1 -1,1Z" style="fill-rule:nonzero;"/><path d="M22.98,41.007l-21.98,0c-0.553,0 -1,-0.447 -1,-1c0,-0.553 0.447,-1 1,-1l21.98,0c0.553,0 1,0.447 1,1c0,0.553 -0.447,1 -1,1Z" style="fill-rule:nonzero;"/><path d="M25.982,45.008l-15.98,0c-0.553,0 -1,-0.447 -1,-1c0,-0.553 0.447,-1 1,-1l15.98,0c0.553,0 1,0.447 1,1c0,0.553 -0.447,1 -1,1Z" style="fill-rule:nonzero;"/><path d="M29.986,49.009l-15.98,0c-0.553,0 -1,-0.447 -1,-1c0,-0.553 0.447,-1 1,-1l15.98,0c0.553,0 1,0.447 1,1c0,0.553 -0.447,1 -1,1Z" style="fill-rule:nonzero;"/></g><g><path d="M43,49c-9.374,0 -17,-7.626 -17,-17c0,-9.374 7.626,-17 17,-17c9.374,0 17,7.626 17,17c0,9.374 -7.626,17 -17,17Zm0,-32c-8.271,0 -15,6.729 -15,15c0,8.271 6.729,15 15,15c8.271,0 15,-6.729 15,-15c0,-8.271 -6.729,-15 -15,-15Z" style="fill-rule:nonzero;"/><path d="M56.544,24.506c-0.048,0 -0.097,-0.003 -0.146,-0.011l-6.713,-0.98c-0.325,-0.047 -0.606,-0.252 -0.752,-0.547l-2.98,-6.041c-0.245,-0.495 -0.041,-1.095 0.454,-1.339c0.498,-0.244 1.096,-0.041 1.339,0.454l2.748,5.569l6.193,0.905c0.547,0.079 0.925,0.587 0.845,1.134c-0.072,0.497 -0.5,0.856 -0.988,0.856Z" style="fill-rule:nonzero;"/><path d="M55.214,43.324c-0.479,0 -0.901,-0.344 -0.984,-0.831l-1.168,-6.809c-0.056,-0.324 0.052,-0.655 0.288,-0.886l4.889,-4.762c0.396,-0.384 1.028,-0.378 1.414,0.02c0.385,0.396 0.377,1.028 -0.02,1.414l-4.512,4.395l1.079,6.29c0.094,0.544 -0.271,1.062 -0.816,1.154c-0.057,0.01 -0.114,0.015 -0.17,0.015Z" style="fill-rule:nonzero;"/><path d="M49.14,47.771c-0.156,0 -0.315,-0.037 -0.464,-0.114l-5.676,-2.98l-5.676,2.98c-0.49,0.256 -1.093,0.067 -1.351,-0.421c-0.257,-0.489 -0.068,-1.094 0.421,-1.351l6.141,-3.225c0.291,-0.152 0.639,-0.152 0.93,0l6.141,3.225c0.489,0.257 0.678,0.861 0.421,1.351c-0.18,0.341 -0.528,0.535 -0.887,0.535Z" style="fill-rule:nonzero;"/><path d="M30.786,43.324c-0.056,0 -0.113,-0.005 -0.17,-0.015c-0.545,-0.093 -0.91,-0.61 -0.816,-1.154l1.079,-6.29l-4.514,-4.395c-0.396,-0.386 -0.404,-1.019 -0.02,-1.414c0.386,-0.396 1.019,-0.403 1.414,-0.02l4.891,4.762c0.236,0.23 0.344,0.562 0.288,0.886l-1.168,6.809c-0.082,0.487 -0.505,0.831 -0.984,0.831Z" style="fill-rule:nonzero;"/><path d="M29.454,24.506c-0.488,0 -0.916,-0.358 -0.988,-0.855c-0.08,-0.547 0.298,-1.055 0.845,-1.134l6.195,-0.905l2.748,-5.569c0.244,-0.495 0.842,-0.698 1.339,-0.454c0.495,0.244 0.699,0.844 0.454,1.339l-2.98,6.041c-0.146,0.295 -0.427,0.5 -0.752,0.547l-6.715,0.98c-0.049,0.007 -0.098,0.01 -0.146,0.01Z" style="fill-rule:nonzero;"/><path d="M46.899,38l-7.801,0c-0.434,0 -0.817,-0.279 -0.951,-0.69l-2.411,-7.414c-0.134,-0.412 0.013,-0.864 0.363,-1.118l6.313,-4.586c0.352,-0.256 0.824,-0.256 1.176,0l6.313,4.586c0.351,0.254 0.497,0.706 0.363,1.118l-2.413,7.414c-0.135,0.412 -0.519,0.69 -0.952,0.69Zm-7.074,-2l6.348,0l1.964,-6.032l-5.137,-3.732l-5.137,3.731l1.962,6.033Z" style="fill-rule:nonzero;"/></g></g></svg>