<?xml version="1.0" encoding="UTF-8" standalone="no"?>
<!DOCTYPE svg PUBLIC "-//W3C//DTD SVG 1.1//EN" "http://www.w3.org/Graphics/SVG/1.1/DTD/svg11.dtd">
<svg width="100%" height="100%" viewBox="0 0 64 64" version="1.1" xmlns="http://www.w3.org/2000/svg" xmlns:xlink="http://www.w3.org/1999/xlink" xml:space="preserve" style="fill-rule:evenodd;clip-rule:evenodd;stroke-linejoin:round;stroke-miterlimit:1.41421;">
    <g>
        <path d="M62.909,29.59L62.869,29.59L53.399,38.82L55.67,52L55.68,52.01C52.52,55.75 48.49,58.73 43.9,60.63L32,54.37L20.09,60.63C15.51,58.72 11.48,55.74 8.319,52.01L8.329,52L10.59,38.82L1.119,29.59L1.09,29.59C1.489,24.45 3.14,19.66 5.739,15.53L5.76,15.54L18.76,13.649L24.54,1.939L24.529,1.91C26.92,1.31 29.42,1 32,1C34.569,1 37.069,1.31 39.46,1.91L39.449,1.939L45.239,13.649L58.229,15.54L58.259,15.519C60.859,19.649 62.51,24.45 62.909,29.59ZM39.79,43L44.619,28.17L32,19L19.38,28.17L24.199,43L39.79,43Z" style="fill:rgb(230,233,237);fill-rule:nonzero;"/>
        <path d="M24.529,1.91L24.54,1.939L18.76,13.649L5.76,15.54L5.739,15.53C9.939,8.83 16.64,3.86 24.529,1.91Z" style="fill:rgb(101,109,120);fill-rule:nonzero;"/>
        <path d="M58.26,15.52L58.23,15.541L45.24,13.65L39.45,1.94L39.46,1.91C47.35,3.85 54.05,8.82 58.26,15.52Z" style="fill:rgb(101,109,120);fill-rule:nonzero;"/>
        <path d="M53.399,38.82L62.869,29.59L62.909,29.59C62.97,30.39 63,31.189 63,32C63,39.63 60.25,46.61 55.68,52.01L55.67,52L53.399,38.82Z" style="fill:rgb(101,109,120);fill-rule:nonzero;"/>
        <path d="M44.619,28.17L39.79,43L24.199,43L19.38,28.17L32,19L44.619,28.17Z" style="fill:rgb(101,109,120);fill-rule:nonzero;"/>
        <path d="M32,54.37L43.899,60.63C40.229,62.16 36.22,63 32,63C27.779,63 23.76,62.16 20.09,60.63L32,54.37Z" style="fill:rgb(101,109,120);fill-rule:nonzero;"/>
        <path d="M1.119,29.59L10.59,38.82L8.329,52L8.319,52.01C3.75,46.61 1,39.63 1,32C1,31.189 1.029,30.39 1.09,29.59L1.119,29.59Z" style="fill:rgb(101,109,120);fill-rule:nonzero;"/>
    </g>
    <g>
        <path d="M32,64C14.355,64 0,49.645 0,32C0,14.355 14.355,0 32,0C49.645,0 64,14.355 64,32C64,49.645 49.645,64 32,64ZM32,2C15.458,2 2,15.458 2,32C2,48.542 15.458,62 32,62C48.542,62 62,48.542 62,32C62,15.458 48.542,2 32,2Z" style="fill-rule:nonzero;"/>
        <path d="M58.235,16.54C58.187,16.54 58.138,16.537 58.089,16.529L45.094,14.634C44.769,14.587 44.488,14.382 44.342,14.088L38.56,2.383C38.315,1.888 38.518,1.287 39.013,1.043C39.511,0.798 40.109,1.002 40.353,1.496L45.904,12.731L58.38,14.55C58.926,14.629 59.305,15.137 59.225,15.684C59.151,16.182 58.724,16.54 58.235,16.54Z" style="fill-rule:nonzero;"/>
        <path d="M55.667,52.998C55.188,52.998 54.766,52.654 54.683,52.167L52.419,38.984C52.363,38.66 52.471,38.329 52.706,38.099L62.178,28.868C62.574,28.483 63.208,28.489 63.592,28.886C63.978,29.282 63.97,29.915 63.574,30.3L54.478,39.164L56.653,51.829C56.747,52.373 56.382,52.891 55.837,52.983C55.78,52.993 55.723,52.998 55.667,52.998Z" style="fill-rule:nonzero;"/>
        <path d="M20.097,61.624C19.738,61.624 19.39,61.43 19.211,61.089C18.953,60.601 19.142,59.996 19.631,59.739L31.535,53.483C31.826,53.329 32.174,53.329 32.465,53.483L44.366,59.739C44.855,59.996 45.044,60.6 44.786,61.089C44.529,61.578 43.927,61.768 43.436,61.509L32,55.498L20.561,61.509C20.412,61.587 20.253,61.624 20.097,61.624Z" style="fill-rule:nonzero;"/>
        <path d="M8.333,52.998C8.277,52.998 8.22,52.993 8.163,52.983C7.618,52.89 7.253,52.373 7.347,51.829L9.522,39.165L0.423,30.3C0.027,29.915 0.02,29.281 0.405,28.886C0.79,28.49 1.425,28.484 1.819,28.868L11.294,38.099C11.529,38.328 11.637,38.66 11.581,38.984L9.317,52.167C9.234,52.654 8.812,52.998 8.333,52.998Z" style="fill-rule:nonzero;"/>
        <path d="M5.762,16.54C5.274,16.54 4.846,16.182 4.774,15.685C4.694,15.138 5.073,14.63 5.619,14.551L18.098,12.732L23.649,1.497C23.893,1.004 24.493,0.8 24.989,1.044C25.484,1.288 25.687,1.889 25.442,2.384L19.659,14.09C19.513,14.384 19.232,14.589 18.907,14.636L5.907,16.529C5.858,16.537 5.81,16.54 5.762,16.54Z" style="fill-rule:nonzero;"/>
        <path d="M39.796,43.999L24.201,43.999C23.767,43.999 23.384,43.72 23.25,43.308L18.432,28.476C18.298,28.064 18.445,27.613 18.795,27.359L31.412,18.191C31.764,17.935 32.236,17.935 32.588,18.191L45.205,27.359C45.556,27.613 45.702,28.065 45.568,28.477L40.747,43.309C40.613,43.72 40.229,43.999 39.796,43.999ZM24.928,41.999L39.07,41.999L43.442,28.549L32,20.235L20.559,28.548L24.928,41.999Z" style="fill-rule:nonzero;"/>
    </g>
</svg>
