<?xml version="1.0" encoding="UTF-8" standalone="no"?>
<!DOCTYPE svg PUBLIC "-//W3C//DTD SVG 1.1//EN" "http://www.w3.org/Graphics/SVG/1.1/DTD/svg11.dtd">
<svg width="100%" height="100%" viewBox="0 0 64 64" version="1.1" xmlns="http://www.w3.org/2000/svg" xmlns:xlink="http://www.w3.org/1999/xlink" xml:space="preserve" style="fill-rule:evenodd;clip-rule:evenodd;stroke-linejoin:round;stroke-miterlimit:1.41421;">
    <g>
        <path d="M49.995,63L46.995,63L36.495,63L36.495,59C36.495,56.24 38.735,54 41.495,54L44.495,54C44.495,55.1 46.285,56 48.495,56C50.705,56 52.495,55.1 52.495,54L55.495,54C58.265,54 60.495,56.24 60.495,59L60.495,63L49.995,63Z" style="fill:rgb(230,233,237);fill-rule:nonzero;"/>
        <path d="M55.495,54L52.495,54C55.264,54.002 57.492,56.241 57.492,59L57.492,63L60.495,63L60.495,59C60.495,56.24 58.265,54 55.495,54Z" style="fill:rgb(204,209,217);fill-rule:nonzero;"/>
        <path d="M57.495,39L57.495,42C57.495,45.53 55.455,48.59 52.495,50.06C51.295,50.661 49.934,51 48.495,51C47.055,51 45.695,50.66 44.495,50.06C41.535,48.59 39.495,45.531 39.495,42L39.495,41.96L39.495,37.64C46.604,38.531 49.854,36.281 52.515,36.031C54.155,35.88 55.555,36.47 57.495,39Z" style="fill:rgb(234,198,187);fill-rule:nonzero;"/>
        <path d="M54.492,36.325L54.492,42C54.492,45.53 52.452,48.59 49.492,50.06C48.72,50.447 47.877,50.71 46.993,50.86C47.483,50.942 47.981,51 48.495,51C49.934,51 51.295,50.66 52.495,50.06C55.455,48.59 57.495,45.531 57.495,42L57.495,39C56.361,37.521 55.413,36.718 54.492,36.325Z" style="fill:rgb(211,177,169);fill-rule:nonzero;"/>
        <path d="M52.495,50.06L52.495,54C52.495,55.1 50.705,56 48.495,56C46.285,56 44.495,55.1 44.495,54L44.495,50.06C45.695,50.661 47.055,51 48.495,51C49.935,51 51.295,50.66 52.495,50.06Z" style="fill:rgb(234,198,187);fill-rule:nonzero;"/>
        <path d="M55.495,31.67L52.515,36.03C49.855,36.28 46.605,38.53 39.495,37.639C39.175,37.599 38.835,37.549 38.495,37.499C38.495,32.249 42.745,27.999 47.995,27.999C51.045,28 53.765,29.44 55.495,31.67Z" style="fill:rgb(255,206,84);fill-rule:nonzero;"/>
        <path d="M57.495,37.5L57.495,39C55.555,36.47 54.155,35.88 52.515,36.03L55.495,31.67C56.755,33.28 57.495,35.31 57.495,37.5Z" style="fill:rgb(246,187,66);fill-rule:nonzero;"/>
        <path d="M24.505,12.03L24.505,15C24.505,18.53 22.465,21.59 19.505,23.06C18.305,23.661 16.935,24 15.505,24C14.075,24 12.705,23.66 11.505,23.06C8.555,21.6 6.525,18.56 6.505,15.05L6.505,15L6.505,12.03L9.505,10C9.505,10 12.505,11 16.005,11C19.495,11 21.505,10 21.505,10L24.505,12.03Z" style="fill:rgb(234,198,187);fill-rule:nonzero;"/>
        <path d="M21.505,10L21.502,10.001L21.502,15C21.502,18.53 19.462,21.59 16.502,23.06C15.731,23.446 14.886,23.709 14.004,23.86C14.494,23.942 14.993,24 15.505,24C16.935,24 18.305,23.66 19.505,23.06C22.465,21.59 24.505,18.531 24.505,15L24.505,12.03L21.505,10Z" style="fill:rgb(211,177,169);fill-rule:nonzero;"/>
        <path d="M9.505,10L6.505,12.03L6.505,9C6.505,4.58 10.085,1 14.505,1L20.505,1L20.505,5C22.715,5 24.505,6.79 24.505,9L24.505,12.03L21.505,10C21.505,10 19.495,11 16.005,11C12.505,11 9.505,10 9.505,10Z" style="fill:rgb(150,83,83);fill-rule:nonzero;"/>
        <path d="M20.505,8C21.057,8 21.505,8.448 21.505,9L21.505,10L24.505,12.03L24.505,9C24.505,6.79 22.715,5 20.505,5L20.505,1L17.505,1L17.505,5C17.505,6.657 18.848,8 20.505,8Z" style="fill:rgb(132,71,71);fill-rule:nonzero;"/>
        <path d="M19.505,23.06L19.505,27C19.505,28.11 17.715,29 15.505,29C13.295,29 11.505,28.11 11.505,27L11.505,23.06C12.705,23.661 14.075,24 15.505,24C16.935,24 18.305,23.66 19.505,23.06Z" style="fill:rgb(234,198,187);fill-rule:nonzero;"/>
        <path d="M11.505,27C11.505,28.11 13.295,29 15.505,29C17.715,29 19.505,28.11 19.505,27L22.505,27C25.265,27 27.505,29.24 27.505,32L27.505,36L15.505,36L3.505,36L3.505,32C3.505,29.24 5.735,27 8.505,27L11.505,27Z" style="fill:rgb(230,233,237);fill-rule:nonzero;"/>
        <path d="M22.505,27L19.505,27C22.264,27.002 24.502,29.241 24.502,32L24.502,36L27.505,36L27.505,32C27.505,29.24 25.265,27 22.505,27Z" style="fill:rgb(204,209,217);fill-rule:nonzero;"/>
    </g>
    <g>
        <path d="M3.503,33C2.95,33 2.503,32.552 2.503,32C2.503,28.691 5.194,26 8.503,26C9.056,26 9.503,26.448 9.503,27C9.503,27.552 9.056,28 8.503,28C6.297,28 4.503,29.794 4.503,32C4.503,32.552 4.056,33 3.503,33Z" style="fill-rule:nonzero;"/>
        <path d="M11.503,28L8.503,28C7.95,28 7.503,27.552 7.503,27C7.503,26.448 7.95,26 8.503,26L11.503,26C12.056,26 12.503,26.448 12.503,27C12.503,27.552 12.056,28 11.503,28Z" style="fill-rule:nonzero;"/>
        <path d="M3.503,37.001C2.95,37.001 2.503,36.554 2.503,36.001L2.503,32C2.503,31.448 2.95,31 3.503,31C4.056,31 4.503,31.448 4.503,32L4.503,36.001C4.503,36.554 4.056,37.001 3.503,37.001Z" style="fill-rule:nonzero;"/>
        <path d="M27.503,33C26.95,33 26.503,32.552 26.503,32C26.503,29.794 24.709,28 22.503,28C21.95,28 21.503,27.552 21.503,27C21.503,26.448 21.95,26 22.503,26C25.812,26 28.503,28.691 28.503,32C28.503,32.552 28.056,33 27.503,33Z" style="fill-rule:nonzero;"/>
        <path d="M22.503,28L19.503,28C18.95,28 18.503,27.552 18.503,27C18.503,26.448 18.95,26 19.503,26L22.503,26C23.056,26 23.503,26.448 23.503,27C23.503,27.552 23.056,28 22.503,28Z" style="fill-rule:nonzero;"/>
        <path d="M27.503,37.001C26.95,37.001 26.503,36.554 26.503,36.001L26.503,32C26.503,31.448 26.95,31 27.503,31C28.056,31 28.503,31.448 28.503,32L28.503,36.001C28.503,36.554 28.056,37.001 27.503,37.001Z" style="fill-rule:nonzero;"/>
        <path d="M11.503,28C10.95,28 10.503,27.552 10.503,27L10.503,23.064C10.503,22.512 10.95,22.064 11.503,22.064C12.056,22.064 12.503,22.512 12.503,23.064L12.503,27C12.503,27.552 12.056,28 11.503,28Z" style="fill-rule:nonzero;"/>
        <path d="M19.503,28C18.95,28 18.503,27.552 18.503,27L18.503,23.064C18.503,22.512 18.95,22.064 19.503,22.064C20.056,22.064 20.503,22.512 20.503,23.064L20.503,27C20.503,27.552 20.056,28 19.503,28Z" style="fill-rule:nonzero;"/>
        <path d="M15.502,25C9.988,25 5.503,20.515 5.503,15.002C5.503,14.45 5.95,14.002 6.503,14.002C7.056,14.002 7.503,14.45 7.503,15.002C7.503,19.412 11.091,23 15.502,23C19.914,23 23.503,19.412 23.503,15.002C23.503,14.45 23.95,14.002 24.503,14.002C25.056,14.002 25.503,14.45 25.503,15.002C25.503,20.515 21.017,25 15.502,25Z" style="fill-rule:nonzero;"/>
        <path d="M6.503,16.051C5.95,16.051 5.503,15.603 5.503,15.051L5.503,9C5.503,8.448 5.95,8 6.503,8C7.056,8 7.503,8.448 7.503,9L7.503,15.051C7.503,15.603 7.056,16.051 6.503,16.051Z" style="fill-rule:nonzero;"/>
        <path d="M24.503,16.002C23.95,16.002 23.503,15.554 23.503,15.002L23.503,9C23.503,8.448 23.95,8 24.503,8C25.056,8 25.503,8.448 25.503,9L25.503,15.002C25.503,15.554 25.056,16.002 24.503,16.002Z" style="fill-rule:nonzero;"/>
        <path d="M24.503,10C23.95,10 23.503,9.552 23.503,9C23.503,7.346 22.157,6 20.503,6C19.95,6 19.503,5.552 19.503,5C19.503,4.448 19.95,4 20.503,4C23.26,4 25.503,6.243 25.503,9C25.503,9.552 25.056,10 24.503,10Z" style="fill-rule:nonzero;"/>
        <path d="M20.503,6C19.95,6 19.503,5.552 19.503,5L19.503,1C19.503,0.448 19.95,0 20.503,0C21.056,0 21.503,0.448 21.503,1L21.503,5C21.503,5.552 21.056,6 20.503,6Z" style="fill-rule:nonzero;"/>
        <path d="M20.503,2L14.503,2C13.95,2 13.503,1.552 13.503,1C13.503,0.448 13.95,0 14.503,0L20.503,0C21.056,0 21.503,0.448 21.503,1C21.503,1.552 21.056,2 20.503,2Z" style="fill-rule:nonzero;"/>
        <path d="M6.503,10C5.95,10 5.503,9.552 5.503,9C5.503,4.038 9.54,0 14.503,0C15.056,0 15.503,0.448 15.503,1C15.503,1.552 15.056,2 14.503,2C10.644,2 7.503,5.14 7.503,9C7.503,9.552 7.056,10 6.503,10Z" style="fill-rule:nonzero;"/>
        <g>
            <path d="M24.502,13.025C24.31,13.025 24.115,12.97 23.943,12.854L20.943,10.829C20.485,10.52 20.365,9.898 20.673,9.441C20.983,8.983 21.604,8.862 22.062,9.172L25.062,11.197C25.52,11.506 25.64,12.128 25.332,12.585C25.139,12.871 24.823,13.025 24.502,13.025Z" style="fill-rule:nonzero;"/>
            <path d="M16.003,12C12.391,12 9.316,10.992 9.188,10.949C8.665,10.775 8.381,10.21 8.554,9.686C8.728,9.162 9.294,8.875 9.818,9.051C9.847,9.061 12.726,10 16.003,10C19.181,10 21.043,9.112 21.062,9.103C21.556,8.861 22.156,9.065 22.399,9.56C22.642,10.054 22.442,10.65 21.95,10.895C21.858,10.94 19.688,12 16.003,12Z" style="fill-rule:nonzero;"/>
            <path d="M6.504,13.025C6.183,13.025 5.867,12.871 5.674,12.585C5.365,12.127 5.486,11.506 5.944,11.197L8.944,9.172C9.403,8.862 10.023,8.984 10.333,9.441C10.642,9.899 10.521,10.52 10.063,10.829L7.063,12.854C6.891,12.97 6.696,13.025 6.504,13.025Z" style="fill-rule:nonzero;"/>
        </g>
        <path d="M39.497,42.96C38.944,42.96 38.497,42.513 38.497,41.96L38.497,37.64C38.497,37.087 38.944,36.64 39.497,36.64C40.05,36.64 40.497,37.087 40.497,37.64L40.497,41.96C40.497,42.513 40.05,42.96 39.497,42.96Z" style="fill-rule:nonzero;"/>
        <path d="M57.497,43C56.944,43 56.497,42.553 56.497,42L56.497,37.499C56.497,36.946 56.944,36.499 57.497,36.499C58.05,36.499 58.497,36.946 58.497,37.499L58.497,42C58.497,42.553 58.05,43 57.497,43Z" style="fill-rule:nonzero;"/>
        <path d="M57.497,38.499C56.944,38.499 56.497,38.052 56.497,37.499C56.497,32.812 52.684,29 47.996,29C43.309,29 39.497,32.813 39.497,37.499C39.497,38.052 39.05,38.499 38.497,38.499C37.944,38.499 37.497,38.052 37.497,37.499C37.497,31.71 42.207,27 47.996,27C53.786,27 58.497,31.71 58.497,37.499C58.497,38.052 58.05,38.499 57.497,38.499Z" style="fill-rule:nonzero;"/>
        <path d="M57.498,40C57.197,40 56.9,39.865 56.703,39.608C54.242,36.395 53.136,36.725 50.179,37.607C47.634,38.364 44.147,39.404 38.341,38.486C37.796,38.4 37.423,37.888 37.51,37.342C37.596,36.797 38.114,36.423 38.654,36.511C44.01,37.356 47.246,36.393 49.608,35.69C52.739,34.76 54.997,34.087 58.292,38.391C58.628,38.829 58.545,39.457 58.106,39.793C57.924,39.933 57.71,40 57.498,40Z" style="fill-rule:nonzero;"/>
        <path d="M52.518,37.028C52.324,37.028 52.127,36.971 51.955,36.854C51.499,36.542 51.382,35.919 51.693,35.463L54.672,31.103C54.985,30.646 55.607,30.529 56.063,30.841C56.519,31.153 56.636,31.775 56.325,32.231L53.346,36.592C53.15,36.876 52.837,37.028 52.518,37.028Z" style="fill-rule:nonzero;"/>
        <path d="M36.497,60C35.944,60 35.497,59.553 35.497,59C35.497,55.691 38.188,53 41.497,53C42.05,53 42.497,53.447 42.497,54C42.497,54.553 42.05,55 41.497,55C39.291,55 37.497,56.794 37.497,59C37.497,59.553 37.05,60 36.497,60Z" style="fill-rule:nonzero;"/>
        <path d="M44.497,55L41.497,55C40.944,55 40.497,54.553 40.497,54C40.497,53.447 40.944,53 41.497,53L44.497,53C45.05,53 45.497,53.447 45.497,54C45.497,54.553 45.05,55 44.497,55Z" style="fill-rule:nonzero;"/>
        <path d="M36.497,63.999C35.944,63.999 35.497,63.552 35.497,62.999L35.497,59C35.497,58.447 35.944,58 36.497,58C37.05,58 37.497,58.447 37.497,59L37.497,62.999C37.497,63.552 37.05,63.999 36.497,63.999Z" style="fill-rule:nonzero;"/>
        <path d="M60.497,60C59.944,60 59.497,59.553 59.497,59C59.497,56.794 57.703,55 55.497,55C54.944,55 54.497,54.553 54.497,54C54.497,53.447 54.944,53 55.497,53C58.806,53 61.497,55.691 61.497,59C61.497,59.553 61.05,60 60.497,60Z" style="fill-rule:nonzero;"/>
        <path d="M55.497,55L52.497,55C51.944,55 51.497,54.553 51.497,54C51.497,53.447 51.944,53 52.497,53L55.497,53C56.05,53 56.497,53.447 56.497,54C56.497,54.553 56.05,55 55.497,55Z" style="fill-rule:nonzero;"/>
        <path d="M60.497,63.999C59.944,63.999 59.497,63.552 59.497,62.999L59.497,59C59.497,58.447 59.944,58 60.497,58C61.05,58 61.497,58.447 61.497,59L61.497,62.999C61.497,63.552 61.05,63.999 60.497,63.999Z" style="fill-rule:nonzero;"/>
        <path d="M44.497,55C43.944,55 43.497,54.553 43.497,54L43.497,50.064C43.497,49.511 43.944,49.064 44.497,49.064C45.05,49.064 45.497,49.511 45.497,50.064L45.497,54C45.497,54.553 45.05,55 44.497,55Z" style="fill-rule:nonzero;"/>
        <path d="M52.497,55C51.944,55 51.497,54.553 51.497,54L51.497,50.064C51.497,49.511 51.944,49.064 52.497,49.064C53.05,49.064 53.497,49.511 53.497,50.064L53.497,54C53.497,54.553 53.05,55 52.497,55Z" style="fill-rule:nonzero;"/>
        <path d="M48.496,52C42.982,52 38.497,47.515 38.497,42.002C38.497,41.449 38.944,41.002 39.497,41.002C40.05,41.002 40.497,41.449 40.497,42.002C40.497,46.412 44.085,50 48.496,50C52.908,50 56.497,46.412 56.497,42.002C56.497,41.449 56.944,41.002 57.497,41.002C58.05,41.002 58.497,41.449 58.497,42.002C58.497,47.515 54.011,52 48.496,52Z" style="fill-rule:nonzero;"/>
        <path d="M48.497,57.001C45.646,57.001 43.497,55.71 43.497,53.997C43.497,53.444 43.944,52.997 44.497,52.997C45.05,52.997 45.497,53.444 45.497,53.997C45.497,54.247 46.561,55.001 48.497,55.001C50.433,55.001 51.497,54.247 51.497,53.997C51.497,53.444 51.944,52.997 52.497,52.997C53.05,52.997 53.497,53.444 53.497,53.997C53.497,55.71 51.348,57.001 48.497,57.001Z" style="fill-rule:nonzero;"/>
        <g>
            <path d="M46.997,64C46.444,64 45.997,63.553 45.997,63L45.997,60C45.997,59.447 46.444,59 46.997,59C47.55,59 47.997,59.447 47.997,60L47.997,63C47.997,63.553 47.55,64 46.997,64Z" style="fill-rule:nonzero;"/>
            <path d="M49.997,64C49.444,64 48.997,63.553 48.997,63L48.997,60C48.997,59.447 49.444,59 49.997,59C50.55,59 50.997,59.447 50.997,60L50.997,63C50.997,63.553 50.55,64 49.997,64Z" style="fill-rule:nonzero;"/>
        </g>
        <path d="M15.503,30.004C12.652,30.004 10.503,28.712 10.503,27C10.503,26.448 10.95,26 11.503,26C12.056,26 12.503,26.448 12.503,27C12.503,27.25 13.567,28.004 15.503,28.004C17.439,28.004 18.503,27.25 18.503,27C18.503,26.448 18.95,26 19.503,26C20.056,26 20.503,26.448 20.503,27C20.503,28.712 18.354,30.004 15.503,30.004Z" style="fill-rule:nonzero;"/>
        <path d="M15.503,37.003C14.95,37.003 14.503,36.556 14.503,36.003L14.503,33.003C14.503,32.451 14.95,32.003 15.503,32.003C16.056,32.003 16.503,32.451 16.503,33.003L16.503,36.003C16.503,36.556 16.056,37.003 15.503,37.003Z" style="fill-rule:nonzero;"/>
        <path d="M48.498,25C47.945,25 47.498,24.552 47.498,24L47.498,10.999C47.498,10.447 47.945,9.999 48.498,9.999C49.051,9.999 49.498,10.447 49.498,10.999L49.498,24C49.498,24.552 49.051,25 48.498,25Z" style="fill-rule:nonzero;"/>
        <path d="M48.498,11.999L28.503,11.999C27.95,11.999 27.503,11.551 27.503,10.999C27.503,10.447 27.95,9.999 28.503,9.999L48.498,9.999C49.051,9.999 49.498,10.447 49.498,10.999C49.498,11.551 49.051,11.999 48.498,11.999Z" style="fill-rule:nonzero;"/>
        <path d="M30.502,13.998C30.246,13.998 29.99,13.9 29.795,13.705L27.796,11.706C27.405,11.315 27.405,10.683 27.796,10.292C28.187,9.901 28.819,9.901 29.21,10.292L31.209,12.291C31.6,12.682 31.6,13.314 31.209,13.705C31.014,13.9 30.758,13.998 30.502,13.998Z" style="fill-rule:nonzero;"/>
        <path d="M28.503,11.999C28.247,11.999 27.991,11.901 27.796,11.706C27.405,11.315 27.405,10.683 27.796,10.292L29.795,8.293C30.186,7.902 30.818,7.902 31.209,8.293C31.6,8.684 31.6,9.316 31.209,9.707L29.21,11.706C29.015,11.901 28.759,11.999 28.503,11.999Z" style="fill-rule:nonzero;"/>
        <path d="M15.497,54.019C14.944,54.019 14.497,53.572 14.497,53.019L14.497,40.012C14.497,39.459 14.944,39.012 15.497,39.012C16.05,39.012 16.497,39.459 16.497,40.012L16.497,53.019C16.497,53.571 16.05,54.019 15.497,54.019Z" style="fill-rule:nonzero;"/>
        <path d="M34.491,54.019L15.497,54.019C14.944,54.019 14.497,53.572 14.497,53.019C14.497,52.466 14.944,52.019 15.497,52.019L34.491,52.019C35.044,52.019 35.491,52.466 35.491,53.019C35.491,53.572 35.044,54.019 34.491,54.019Z" style="fill-rule:nonzero;"/>
        <path d="M34.491,54.019C34.235,54.019 33.979,53.921 33.784,53.726L31.784,51.725C31.393,51.334 31.393,50.702 31.784,50.311C32.175,49.92 32.807,49.92 33.198,50.311L35.198,52.312C35.589,52.703 35.589,53.335 35.198,53.726C35.003,53.921 34.747,54.019 34.491,54.019Z" style="fill-rule:nonzero;"/>
        <path d="M32.491,56.019C32.235,56.019 31.979,55.921 31.784,55.726C31.393,55.335 31.393,54.703 31.784,54.312L33.784,52.312C34.175,51.921 34.807,51.921 35.198,52.312C35.589,52.703 35.589,53.335 35.198,53.726L33.198,55.726C33.003,55.921 32.747,56.019 32.491,56.019Z" style="fill-rule:nonzero;"/>
        <path d="M60.497,63.999L36.497,63.999C35.944,63.999 35.497,63.552 35.497,62.999C35.497,62.446 35.944,61.999 36.497,61.999L60.497,61.999C61.05,61.999 61.497,62.446 61.497,62.999C61.497,63.552 61.05,63.999 60.497,63.999Z" style="fill-rule:nonzero;"/>
        <path d="M27.503,37.001L3.503,37.001C2.95,37.001 2.503,36.554 2.503,36.001C2.503,35.448 2.95,35.001 3.503,35.001L27.503,35.001C28.056,35.001 28.503,35.448 28.503,36.001C28.503,36.554 28.056,37.001 27.503,37.001Z" style="fill-rule:nonzero;"/>
    </g>
</svg>
