<?xml version="1.0" encoding="UTF-8" standalone="no"?><!DOCTYPE svg PUBLIC "-//W3C//DTD SVG 1.1//EN"
        "http://www.w3.org/Graphics/SVG/1.1/DTD/svg11.dtd">
<svg width="100%" height="100%" viewBox="0 0 64 64" version="1.1" xmlns="http://www.w3.org/2000/svg"
     xmlns:xlink="http://www.w3.org/1999/xlink" xml:space="preserve"
     style="fill-rule:evenodd;clip-rule:evenodd;stroke-linejoin:round;stroke-miterlimit:1.41421;"><g id="__x33__sword_x2C__duel_x2C__war_x2C__fairy_x2C__tale_x2C__legend_x2C__fantasy"><g><path d="M62.117,56.371c1.178,1.18 1.18,3.079 0,4.25c-1.17,1.17 -3.07,1.17 -4.24,0c-0.631,-0.63 -0.92,-1.47 -0.871,-2.29c0.041,-0.71 0.33,-1.41 0.871,-1.96c0.539,-0.54 1.24,-0.841 1.959,-0.87c0.82,-0.05 1.65,0.24 2.281,0.87Z" style="fill:#a0a0a0;fill-rule:nonzero;"/><path
        d="M57.047,52.721l-2.82,-2.83l-3.83,-3.829l-2.83,2.83l2.41,2.409l2.83,2.83l4.199,4.2c0.041,-0.71 0.33,-1.41 0.871,-1.96c0.539,-0.54 1.24,-0.841 1.959,-0.87l-2.789,-2.78Z"
        style="fill:#4d4d4d;fill-rule:nonzero;"/><path
        d="M49.816,40.991c-0.539,-1.11 -0.34,-2.49 0.58,-3.421c1.17,-1.17 3.07,-1.169 4.24,0.011c1.17,1.17 1.17,3.07 0,4.239l-4.24,4.241l-2.83,2.83l-4.24,4.239c-1.18,1.17 -3.08,1.17 -4.25,0c-1.17,-1.17 -1.17,-3.07 0,-4.24c0.92,-0.92 2.301,-1.12 3.42,-0.579l0,-0.011l1.531,-1.53l4.25,-4.239l1.529,-1.541l0.01,0.001Z"
        style="fill:#c0c0c0;fill-rule:nonzero;"/><path
        d="M36.246,30.491l12.022,12.03l0.009,0.01l-4.25,4.24l-12.031,-12.03l2.131,-2.13l2.119,-2.12Z"
        style="fill:#ccd1d9;fill-rule:nonzero;"/><path
        d="M27.756,30.501l-22.34,-22.35l-1.42,-5.65l5.66,1.41l22.34,22.34l-2.119,2.121l-2.121,2.129Z"
        style="fill:#ccd1d9;fill-rule:nonzero;"/><path
        d="M6.986,58.331c0.051,0.82 -0.24,1.66 -0.869,2.29c-1.17,1.17 -3.07,1.17 -4.24,0c-1.17,-1.171 -1.17,-3.07 0,-4.25c0.629,-0.631 1.471,-0.921 2.289,-0.87c0.711,0.04 1.41,0.33 1.951,0.87c0.539,0.55 0.83,1.25 0.869,1.96Z"
        style="fill:#a0a0a0;fill-rule:nonzero;"/><path
        d="M13.607,46.062l-3.83,3.83l-2.83,2.829l-2.781,2.78c0.711,0.04 1.41,0.33 1.951,0.87c0.539,0.55 0.83,1.25 0.869,1.96l0.01,0l4.201,-4.189l2.83,-2.83l2.41,-2.421l-2.83,-2.829Z"
        style="fill:#4d4d4d;fill-rule:nonzero;"/><path
        d="M13.607,46.062l-4.24,-4.24c-1.17,-1.171 -1.17,-3.07 0,-4.24c1.17,-1.18 3.07,-1.18 4.238,-0.011c0.922,0.931 1.121,2.311 0.582,3.421l1.539,1.53l4.24,4.249l1.539,1.53c1.121,-0.53 2.49,-0.33 3.41,0.59c1.17,1.17 1.17,3.07 0,4.24c-1.17,1.17 -3.068,1.17 -4.24,0l-4.238,-4.24l-2.83,-2.829Z"
        style="fill:#bcbcbc;fill-rule:nonzero;"/><path
        d="M27.756,30.501l2.121,-2.129l2.119,-2.121l22.352,-22.34l5.648,-1.41l-1.41,5.65l-22.34,22.34l-2.119,2.12l-2.131,2.13l-12.029,12.03l-4.24,-4.25l12.029,-12.02Z"
        style="fill:#e6e9ed;fill-rule:nonzero;"/></g><g><g><path d="M22.829,52.014c-0.553,0 -1.005,-0.447 -1.005,-1c0,-0.553 0.442,-1 0.994,-1l0.011,0c0.552,0 1,0.447 1,1c0,0.553 -0.448,1 -1,1Z" style="fill-rule:nonzero;"/><path
        d="M58.587,9.156c-0.08,0 -0.162,-0.009 -0.243,-0.03c-0.536,-0.134 -0.862,-0.677 -0.728,-1.213l1.414,-5.656c0.134,-0.535 0.675,-0.865 1.212,-0.728c0.536,0.134 0.862,0.677 0.728,1.213l-1.414,5.656c-0.114,0.455 -0.521,0.758 -0.969,0.758Z"
        style="fill-rule:nonzero;"/><path
        d="M54.343,4.914c-0.448,0 -0.855,-0.303 -0.969,-0.757c-0.135,-0.536 0.191,-1.079 0.728,-1.213l5.656,-1.414c0.534,-0.136 1.078,0.192 1.212,0.728c0.135,0.536 -0.191,1.079 -0.728,1.213l-5.656,1.414c-0.081,0.02 -0.163,0.029 -0.243,0.029Z"
        style="fill-rule:nonzero;"/><path
        d="M19.971,47.771c-0.256,0 -0.512,-0.098 -0.707,-0.293c-0.391,-0.391 -0.391,-1.023 0,-1.414l38.615,-38.615c0.391,-0.391 1.023,-0.391 1.414,0c0.391,0.391 0.391,1.023 0,1.414l-38.615,38.616c-0.196,0.195 -0.451,0.292 -0.707,0.292Z"
        style="fill-rule:nonzero;"/><path
        d="M15.729,43.529c-0.256,0 -0.512,-0.098 -0.707,-0.293c-0.391,-0.391 -0.391,-1.023 0,-1.414l38.615,-38.615c0.391,-0.391 1.023,-0.391 1.414,0c0.391,0.391 0.391,1.023 0,1.414l-38.615,38.615c-0.196,0.196 -0.452,0.293 -0.707,0.293Z"
        style="fill-rule:nonzero;"/><path
        d="M21.506,49.307c-0.256,0 -0.512,-0.098 -0.707,-0.293l-7.316,-7.316c-0.391,-0.391 -0.391,-1.023 0,-1.414c0.391,-0.391 1.023,-0.391 1.414,0l7.316,7.316c0.391,0.391 0.391,1.023 0,1.414c-0.195,0.195 -0.451,0.293 -0.707,0.293Z"
        style="fill-rule:nonzero;"/><path
        d="M20.676,54.135c-0.256,0 -0.512,-0.098 -0.707,-0.293l-11.313,-11.313c-0.391,-0.391 -0.391,-1.023 0,-1.414c0.391,-0.391 1.023,-0.391 1.414,0l11.313,11.313c0.391,0.391 0.391,1.023 0,1.414c-0.195,0.195 -0.451,0.293 -0.707,0.293Z"
        style="fill-rule:nonzero;"/><path
        d="M22.8,55.014c-1.069,0 -2.074,-0.416 -2.83,-1.171c-0.392,-0.391 -0.392,-1.023 -0.002,-1.414c0.391,-0.393 1.025,-0.391 1.414,-0.002c0.757,0.757 2.075,0.757 2.83,0.002c0.78,-0.78 0.779,-2.049 0,-2.83c-0.78,-0.778 -2.049,-0.777 -2.827,0.001c-0.391,0.391 -1.023,0.391 -1.414,0c-0.391,-0.391 -0.391,-1.023 0,-1.414c1.559,-1.559 4.097,-1.558 5.655,-0.001c1.56,1.562 1.56,4.1 0.001,5.657c-0.754,0.756 -1.759,1.172 -2.827,1.172Z"
        style="fill-rule:nonzero;"/><path
        d="M11.515,40.701c-0.553,0 -1.005,-0.447 -1.005,-1c0,-0.553 0.442,-1 0.994,-1l0.011,0c0.552,0 1,0.447 1,1c0,0.553 -0.449,1 -1,1Z"
        style="fill-rule:nonzero;"/><path
        d="M13.607,42.822c-0.256,0 -0.512,-0.098 -0.706,-0.292c-0.392,-0.391 -0.392,-1.023 -0.002,-1.414c0.779,-0.781 0.779,-2.051 0,-2.832c-0.78,-0.778 -2.05,-0.776 -2.828,0.002c-0.78,0.78 -0.779,2.049 0,2.83c0.39,0.391 0.39,1.023 -0.002,1.414c-0.389,0.389 -1.023,0.391 -1.414,-0.002c-1.558,-1.56 -1.558,-4.098 0.001,-5.655c1.557,-1.561 4.095,-1.56 5.657,-0.003c1.559,1.562 1.559,4.099 0.002,5.658c-0.195,0.197 -0.452,0.294 -0.708,0.294Z"
        style="fill-rule:nonzero;"/><path
        d="M4.166,56.506c-0.256,0 -0.512,-0.098 -0.707,-0.293c-0.391,-0.391 -0.391,-1.023 0,-1.414l9.439,-9.439c0.391,-0.391 1.023,-0.391 1.414,0c0.391,0.391 0.391,1.023 0,1.414l-9.439,9.439c-0.195,0.195 -0.451,0.293 -0.707,0.293Z"
        style="fill-rule:nonzero;"/><path
        d="M6.992,59.336c-0.256,0 -0.512,-0.098 -0.707,-0.293c-0.391,-0.391 -0.391,-1.023 0,-1.414l9.441,-9.441c0.391,-0.391 1.023,-0.391 1.414,0c0.391,0.391 0.391,1.023 0,1.414l-9.441,9.441c-0.195,0.195 -0.451,0.293 -0.707,0.293Z"
        style="fill-rule:nonzero;"/><path
        d="M3.999,62.5c-1.068,0 -2.073,-0.416 -2.828,-1.173c-0.755,-0.753 -1.171,-1.758 -1.171,-2.826c0,-1.069 0.416,-2.073 1.172,-2.829c1.51,-1.51 4.146,-1.509 5.655,-0.001c1.56,1.562 1.56,4.1 0.001,5.657c-0.756,0.756 -1.76,1.172 -2.829,1.172Zm0,-5.998c-0.534,0 -1.036,0.207 -1.413,0.584c-0.378,0.378 -0.586,0.881 -0.586,1.415c0,0.534 0.208,1.035 0.585,1.412c0.758,0.758 2.073,0.757 2.829,0.001c0.779,-0.779 0.778,-2.048 -0.001,-2.829c-0.377,-0.376 -0.879,-0.583 -1.414,-0.583Z"
        style="fill-rule:nonzero;"/><path
        d="M21.383,42.115c-0.256,0 -0.512,-0.098 -0.707,-0.293c-0.391,-0.391 -0.391,-1.023 0,-1.414l29.428,-29.426c0.391,-0.391 1.023,-0.391 1.414,0c0.391,0.391 0.391,1.023 0,1.414l-29.428,29.426c-0.195,0.196 -0.451,0.293 -0.707,0.293Z"
        style="fill-rule:nonzero;"/><path
        d="M14.02,52.307c-0.104,0 -0.211,-0.017 -0.316,-0.052l-4.242,-1.414c-0.523,-0.174 -0.807,-0.74 -0.632,-1.265c0.175,-0.523 0.737,-0.807 1.265,-0.632l4.242,1.414c0.523,0.174 0.807,0.74 0.632,1.265c-0.141,0.419 -0.531,0.684 -0.949,0.684Z"
        style="fill-rule:nonzero;"/><path
        d="M11.191,55.135c-0.104,0 -0.211,-0.017 -0.316,-0.052l-4.24,-1.414c-0.523,-0.175 -0.807,-0.74 -0.632,-1.265c0.175,-0.523 0.736,-0.808 1.265,-0.632l4.24,1.414c0.523,0.175 0.807,0.74 0.632,1.265c-0.14,0.419 -0.53,0.684 -0.949,0.684Z"
        style="fill-rule:nonzero;"/></g>
    <g><path d="M41.231,52.014c-0.553,0 -1.005,-0.447 -1.005,-1c0,-0.553 0.442,-1 0.994,-1l0.011,0c0.552,0 1,0.447 1,1c0,0.553 -0.448,1 -1,1Z" style="fill-rule:nonzero;"/>
        <path d="M5.413,9.156c-0.448,0 -0.855,-0.303 -0.969,-0.757l-1.414,-5.656c-0.134,-0.536 0.192,-1.079 0.728,-1.213c0.532,-0.136 1.078,0.192 1.212,0.727l1.414,5.656c0.135,0.537 -0.192,1.08 -0.728,1.213c-0.081,0.021 -0.163,0.03 -0.243,0.03Z"
              style="fill-rule:nonzero;"/>
        <path d="M9.657,4.914c-0.08,0 -0.162,-0.009 -0.243,-0.03l-5.656,-1.414c-0.536,-0.134 -0.862,-0.677 -0.728,-1.213c0.133,-0.535 0.677,-0.864 1.212,-0.727l5.656,1.414c0.536,0.134 0.862,0.677 0.728,1.213c-0.113,0.454 -0.521,0.757 -0.969,0.757Z"
              style="fill-rule:nonzero;"/>
        <path d="M44.029,47.771c-0.256,0 -0.512,-0.098 -0.707,-0.293l-12.029,-12.029c-0.391,-0.391 -0.391,-1.023 0,-1.414c0.391,-0.391 1.023,-0.391 1.414,0l12.029,12.029c0.391,0.391 0.391,1.023 0,1.414c-0.195,0.196 -0.451,0.293 -0.707,0.293Z"
              style="fill-rule:nonzero;"/>
        <path d="M48.271,43.529c-0.256,0 -0.512,-0.098 -0.707,-0.293l-12.028,-12.03c-0.391,-0.391 -0.391,-1.024 0,-1.414c0.391,-0.391 1.023,-0.391 1.414,0l12.028,12.03c0.391,0.391 0.391,1.023 0,1.414c-0.195,0.196 -0.451,0.293 -0.707,0.293Z"
              style="fill-rule:nonzero;"/>
        <path d="M42.494,49.307c-0.256,0 -0.512,-0.098 -0.707,-0.293c-0.391,-0.391 -0.391,-1.023 0,-1.414l7.316,-7.316c0.391,-0.391 1.023,-0.391 1.414,0c0.391,0.391 0.391,1.023 0,1.414l-7.316,7.316c-0.195,0.195 -0.451,0.293 -0.707,0.293Z"
              style="fill-rule:nonzero;"/>
        <path d="M43.324,54.135c-0.256,0 -0.512,-0.098 -0.707,-0.293c-0.391,-0.391 -0.391,-1.023 0,-1.414l11.313,-11.313c0.391,-0.391 1.023,-0.391 1.414,0c0.391,0.391 0.391,1.023 0,1.414l-11.313,11.313c-0.195,0.195 -0.451,0.293 -0.707,0.293Z"
              style="fill-rule:nonzero;"/>
        <path d="M41.2,55.014c-1.068,0 -2.073,-0.416 -2.828,-1.173c-1.558,-1.557 -1.558,-4.095 0,-5.654c1.563,-1.561 4.099,-1.56 5.657,-0.001c0.391,0.391 0.391,1.023 0,1.414c-0.391,0.391 -1.023,0.391 -1.414,0c-0.78,-0.78 -2.049,-0.777 -2.829,0.001c-0.777,0.779 -0.778,2.048 0.001,2.827c0.756,0.756 2.073,0.756 2.831,-0.001c0.389,-0.389 1.023,-0.391 1.414,0.002c0.39,0.391 0.39,1.023 -0.002,1.414c-0.756,0.755 -1.76,1.171 -2.83,1.171Z"
              style="fill-rule:nonzero;"/>
        <path d="M52.546,40.701c-0.553,0 -1.005,-0.447 -1.005,-1c0,-0.553 0.442,-1 0.994,-1l0.011,0c0.552,0 1,0.447 1,1c0,0.553 -0.448,1 -1,1Z"
              style="fill-rule:nonzero;"/>
        <path d="M54.637,42.822c-0.256,0 -0.512,-0.098 -0.706,-0.292c-0.392,-0.391 -0.392,-1.023 -0.002,-1.414c0.779,-0.781 0.78,-2.05 0.001,-2.829c-0.779,-0.781 -2.05,-0.78 -2.831,-0.001c-0.777,0.779 -0.777,2.049 0.002,2.83c0.39,0.391 0.39,1.023 -0.002,1.414c-0.389,0.389 -1.023,0.391 -1.414,-0.002c-1.557,-1.56 -1.557,-4.097 0,-5.656c1.566,-1.559 4.104,-1.557 5.66,0.002c1.558,1.557 1.558,4.095 0,5.654c-0.196,0.197 -0.452,0.294 -0.708,0.294Z"
              style="fill-rule:nonzero;"/>
        <path d="M59.834,56.506c-0.256,0 -0.512,-0.098 -0.707,-0.293l-9.439,-9.439c-0.391,-0.391 -0.391,-1.023 0,-1.414c0.391,-0.391 1.023,-0.391 1.414,0l9.439,9.439c0.391,0.391 0.391,1.023 0,1.414c-0.195,0.195 -0.451,0.293 -0.707,0.293Z"
              style="fill-rule:nonzero;"/>
        <path d="M57.008,59.336c-0.256,0 -0.512,-0.098 -0.707,-0.293l-9.441,-9.441c-0.391,-0.391 -0.391,-1.023 0,-1.414c0.391,-0.391 1.023,-0.391 1.414,0l9.441,9.441c0.391,0.391 0.391,1.023 0,1.414c-0.195,0.195 -0.451,0.293 -0.707,0.293Z"
              style="fill-rule:nonzero;"/>
        <path d="M60.001,62.5c-1.069,0 -2.073,-0.416 -2.829,-1.172c-1.559,-1.558 -1.559,-4.096 -0.001,-5.655c1.514,-1.512 4.147,-1.511 5.657,-0.001c0.756,0.756 1.172,1.76 1.172,2.829c0,1.068 -0.416,2.073 -1.173,2.828c-0.753,0.755 -1.758,1.171 -2.826,1.171Zm0,-5.998c-0.535,0 -1.037,0.207 -1.416,0.585c-0.777,0.779 -0.778,2.048 0.001,2.827c0.756,0.756 2.073,0.755 2.827,0.001c0.379,-0.379 0.587,-0.88 0.587,-1.414c0,-0.534 -0.208,-1.037 -0.586,-1.415c-0.377,-0.377 -0.879,-0.584 -1.413,-0.584Z"
              style="fill-rule:nonzero;"/>
        <path d="M42.617,42.115c-0.256,0 -0.512,-0.098 -0.707,-0.293l-8.494,-8.496c-0.391,-0.391 -0.391,-1.024 0,-1.414c0.391,-0.391 1.023,-0.391 1.414,0l8.494,8.496c0.391,0.391 0.391,1.023 0,1.414c-0.195,0.196 -0.451,0.293 -0.707,0.293Z"
              style="fill-rule:nonzero;"/>
        <path d="M49.98,52.307c-0.419,0 -0.809,-0.265 -0.948,-0.684c-0.175,-0.524 0.108,-1.091 0.632,-1.265l4.242,-1.414c0.529,-0.175 1.09,0.108 1.265,0.632c0.175,0.524 -0.108,1.091 -0.632,1.265l-4.242,1.414c-0.106,0.035 -0.212,0.052 -0.317,0.052Z"
              style="fill-rule:nonzero;"/>
        <path d="M52.809,55.135c-0.419,0 -0.809,-0.265 -0.948,-0.684c-0.175,-0.524 0.108,-1.09 0.632,-1.265l4.24,-1.414c0.528,-0.176 1.09,0.108 1.265,0.632c0.175,0.524 -0.108,1.09 -0.632,1.265l-4.24,1.414c-0.106,0.035 -0.213,0.052 -0.317,0.052Z"
              style="fill-rule:nonzero;"/>
        <path d="M27.758,31.5c-0.256,0 -0.512,-0.098 -0.707,-0.293l-22.344,-22.344c-0.391,-0.391 -0.391,-1.023 0,-1.414c0.391,-0.391 1.023,-0.391 1.414,0l22.344,22.344c0.391,0.391 0.391,1.023 0,1.414c-0.195,0.195 -0.451,0.293 -0.707,0.293Z"
              style="fill-rule:nonzero;"/>
        <path d="M29.879,29.379c-0.256,0 -0.512,-0.098 -0.707,-0.293l-16.69,-16.69c-0.391,-0.391 -0.391,-1.023 0,-1.414c0.391,-0.391 1.023,-0.391 1.414,0l16.689,16.689c0.391,0.391 0.391,1.023 0,1.414c-0.194,0.196 -0.45,0.294 -0.706,0.294Z"
              style="fill-rule:nonzero;"/>
        <path d="M32,27.258c-0.256,0 -0.512,-0.098 -0.707,-0.293l-22.344,-22.344c-0.391,-0.391 -0.391,-1.023 0,-1.414c0.391,-0.391 1.023,-0.391 1.414,0l22.344,22.344c0.391,0.391 0.391,1.023 0,1.414c-0.195,0.195 -0.451,0.293 -0.707,0.293Z"
              style="fill-rule:nonzero;"/></g></g></g></svg>