<?xml version="1.0" encoding="UTF-8" standalone="no"?>
<!DOCTYPE svg PUBLIC "-//W3C//DTD SVG 1.1//EN" "http://www.w3.org/Graphics/SVG/1.1/DTD/svg11.dtd">
<svg width="100%" height="100%" viewBox="0 0 64 64" version="1.1" xmlns="http://www.w3.org/2000/svg" xmlns:xlink="http://www.w3.org/1999/xlink" xml:space="preserve" style="fill-rule:evenodd;clip-rule:evenodd;stroke-linejoin:round;stroke-miterlimit:1.41421;">
    <g>
        <path d="M53.2,30.992L54.86,30.992L54.86,31.002C54.139,32.242 53.259,33.372 52.25,34.382L46.31,40.313C49.21,37.422 51,33.422 51,29.002C51,20.162 43.84,13.012 35.01,13.002L35,13.002L29.03,13.002L35.04,6.992L41.02,6.992C49.17,7.002 55.89,13.112 56.88,20.992L53.2,20.992C53.72,22.562 54,24.252 54,26.002C54,27.742 53.72,29.422 53.2,30.992Z" style="fill:rgb(204,209,217);fill-rule:nonzero;"/>
        <path d="M58,20.992C60.76,20.992 63,23.232 63,25.992C63,28.752 60.76,30.992 58,30.992L54.86,30.992L53.2,30.992C53.72,29.422 54,27.742 54,26.002C54,24.252 53.72,22.563 53.2,20.992L58,20.992Z" style="fill:rgb(230,233,237);fill-rule:nonzero;"/>
        <path d="M35.04,6.992L29.03,13.002L20.02,13.002L26.03,6.992L35.04,6.992Z" style="fill:rgb(101,109,120);fill-rule:nonzero;"/>
        <path d="M26.03,6.992L20.02,13.002L1,13.002L7.01,6.992L26.03,6.992Z" style="fill:rgb(204,209,217);fill-rule:nonzero;"/>
        <path d="M35,16.982C41.62,16.982 47,22.352 47,28.982C47,35.612 41.62,40.982 35,40.982C28.37,40.982 23,35.612 23,28.982C23,22.352 28.37,16.982 35,16.982ZM41,28.982C41,25.671 38.31,22.982 35,22.982C31.69,22.982 29,25.671 29,28.982C29,32.292 31.69,34.982 35,34.982C38.31,34.982 41,32.292 41,28.982Z" style="fill:rgb(204,209,217);fill-rule:nonzero;"/>
        <path d="M35,22.982C38.31,22.982 41,25.671 41,28.982C41,32.292 38.31,34.982 35,34.982C31.69,34.982 29,32.292 29,28.982C29,25.672 31.69,22.982 35,22.982Z" style="fill:rgb(230,233,237);fill-rule:nonzero;"/>
        <path d="M35.01,13.002C43.84,13.012 51,20.162 51,29.002C51,33.422 49.21,37.422 46.31,40.313C43.42,43.212 39.42,45.002 35,45.002C26.16,45.002 19,37.842 19,29.002L1,29.002L1,13.002L35.01,13.002ZM47,28.982C47,22.352 41.62,16.982 35,16.982C28.37,16.982 23,22.352 23,28.982C23,35.612 28.37,40.982 35,40.982C41.62,40.982 47,35.612 47,28.982Z" style="fill:rgb(230,233,237);fill-rule:nonzero;"/>
    </g>
    <g>
        <path d="M18.996,30.006L1,30.006C0.734,30.006 0.48,29.901 0.293,29.713C0.106,29.525 0,29.271 0,29.006L0.002,13.004C0.002,12.452 0.45,12.004 1.002,12.004L35.008,12.004C35.561,12.004 36.008,12.452 36.008,13.004C36.008,13.556 35.561,14.004 35.008,14.004L2.002,14.004L2,28.006L18.996,28.006C19.549,28.006 19.996,28.454 19.996,29.006C19.996,29.558 19.549,30.006 18.996,30.006Z" style="fill-rule:nonzero;"/>
        <path d="M1.002,14.004C0.746,14.004 0.49,13.906 0.295,13.711C-0.096,13.32 -0.096,12.687 0.295,12.297L6.301,6.292C6.489,6.104 6.742,5.999 7.008,5.999L41.016,5.998C41.569,5.998 42.016,6.446 42.016,6.998C42.016,7.55 41.569,7.998 41.016,7.998L7.422,7.999L1.709,13.711C1.514,13.906 1.258,14.004 1.002,14.004Z" style="fill-rule:nonzero;"/>
        <path d="M34.996,46.006C25.622,46.006 17.996,38.38 17.996,29.006C17.996,28.454 18.443,28.006 18.996,28.006C19.549,28.006 19.996,28.454 19.996,29.006C19.996,37.277 26.725,44.006 34.996,44.006C43.267,44.006 49.996,37.277 49.996,29.006C49.996,20.735 43.267,14.006 34.996,14.006C34.443,14.006 33.996,13.558 33.996,13.006C33.996,12.454 34.443,12.006 34.996,12.006C44.37,12.006 51.996,19.632 51.996,29.006C51.996,38.38 44.37,46.006 34.996,46.006Z" style="fill-rule:nonzero;"/>
        <path d="M53.203,32C53.099,32 52.994,31.983 52.89,31.95C52.366,31.777 52.08,31.212 52.252,30.688C52.747,29.182 52.998,27.606 52.998,26.004C52.998,24.397 52.746,22.816 52.249,21.306C52.077,20.782 52.362,20.216 52.887,20.044C53.408,19.871 53.977,20.156 54.15,20.681C54.713,22.393 54.999,24.184 54.999,26.004C54.999,27.818 54.715,29.604 54.153,31.312C54.015,31.733 53.624,32 53.203,32Z" style="fill-rule:nonzero;"/>
        <path d="M52.248,35.383C51.99,35.383 51.732,35.284 51.537,35.086C51.148,34.693 51.152,34.06 51.545,33.672C52.502,32.726 53.326,31.66 53.993,30.504C54.269,30.025 54.881,29.861 55.359,30.138C55.838,30.414 56.002,31.026 55.725,31.504C54.968,32.815 54.035,34.023 52.951,35.094C52.756,35.287 52.502,35.383 52.248,35.383Z" style="fill-rule:nonzero;"/>
        <path d="M56.876,21.999C56.379,21.999 55.947,21.629 55.885,21.123C54.953,13.642 48.556,8 41.002,8C40.449,8 40.002,7.552 40.002,7C40.002,6.448 40.449,6 41.002,6C49.563,6 56.814,12.395 57.869,20.875C57.937,21.423 57.549,21.923 57,21.991C56.959,21.997 56.917,21.999 56.876,21.999Z" style="fill-rule:nonzero;"/>
        <path d="M58,31.999C57.447,31.999 57,31.551 57,30.999C57,30.447 57.447,29.999 58,29.999C60.204,29.999 61.998,28.204 62,25.999C62,24.931 61.584,23.926 60.828,23.17C60.073,22.415 59.069,21.999 58.002,21.999C58.001,21.999 58.001,21.999 58,21.999C57.448,21.999 57,21.552 57,20.999C57,20.446 57.447,19.999 58,19.999C58,19.999 58.001,19.999 58.002,19.999C59.604,19.999 61.11,20.623 62.243,21.756C63.376,22.889 64,24.396 64,25.999C63.998,29.308 61.306,31.999 58,31.999Z" style="fill-rule:nonzero;"/>
        <path d="M58,21.999L53.199,21.999C52.646,21.999 52.199,21.551 52.199,20.999C52.199,20.447 52.646,19.999 53.199,19.999L58,19.999C58.553,19.999 59,20.447 59,20.999C59,21.551 58.553,21.999 58,21.999Z" style="fill-rule:nonzero;"/>
        <path d="M58,31.999L53.199,31.999C52.646,31.999 52.199,31.551 52.199,30.999C52.199,30.447 52.646,29.999 53.199,29.999L58,29.999C58.553,29.999 59,30.447 59,30.999C59,31.551 58.553,31.999 58,31.999Z" style="fill-rule:nonzero;"/>
        <path d="M46.311,41.32C46.055,41.32 45.799,41.222 45.604,41.027C45.213,40.636 45.213,40.004 45.604,39.613L51.542,33.675C51.933,33.284 52.565,33.284 52.956,33.675C53.347,34.066 53.347,34.698 52.956,35.089L47.018,41.027C46.822,41.223 46.566,41.32 46.311,41.32Z" style="fill-rule:nonzero;"/>
        <path d="M34.998,41.987C27.83,41.987 21.998,36.155 21.998,28.986C21.998,21.819 27.83,15.987 34.998,15.987C42.166,15.987 47.998,21.819 47.998,28.986C47.998,36.155 42.166,41.987 34.998,41.987ZM34.998,17.987C28.933,17.987 23.998,22.921 23.998,28.986C23.998,35.052 28.933,39.987 34.998,39.987C41.063,39.987 45.998,35.052 45.998,28.986C45.998,22.921 41.063,17.987 34.998,17.987Z" style="fill-rule:nonzero;"/>
        <path d="M34.998,35.987C31.139,35.987 27.998,32.846 27.998,28.986C27.998,25.127 31.139,21.987 34.998,21.987C38.857,21.987 41.998,25.127 41.998,28.986C41.998,32.847 38.857,35.987 34.998,35.987ZM34.998,23.987C32.241,23.987 29.998,26.23 29.998,28.986C29.998,31.743 32.241,33.987 34.998,33.987C37.755,33.987 39.998,31.743 39.998,28.986C39.998,26.23 37.755,23.987 34.998,23.987Z" style="fill-rule:nonzero;"/>
        <path d="M58,58.002C57.447,58.002 57,57.555 57,57.002L57,26.004C57,25.452 57.447,25.004 58,25.004C58.553,25.004 59,25.452 59,26.004L59,57.002C59,57.555 58.553,58.002 58,58.002Z" style="fill-rule:nonzero;"/>
        <path d="M20.021,14.004C19.765,14.004 19.509,13.906 19.314,13.711C18.923,13.32 18.923,12.687 19.314,12.297L25.32,6.292C25.711,5.901 26.343,5.901 26.734,6.292C27.125,6.683 27.125,7.316 26.734,7.706L20.728,13.711C20.532,13.906 20.276,14.004 20.021,14.004Z" style="fill-rule:nonzero;"/>
        <path d="M29.029,14.004C28.773,14.004 28.517,13.906 28.322,13.711C27.931,13.32 27.931,12.687 28.322,12.297L34.328,6.292C34.719,5.901 35.351,5.901 35.742,6.292C36.133,6.683 36.133,7.316 35.742,7.706L29.736,13.711C29.541,13.906 29.285,14.004 29.029,14.004Z" style="fill-rule:nonzero;"/>
    </g>
</svg>
